<svg width="330" height="152" viewBox="0 0 330 152" fill="none" xmlns="http://www.w3.org/2000/svg">
<path d="M21.415 5.00586H22.085V11.541C22.085 12.0059 22.0667 12.7852 22.0303 13.8789H22.0713L27.9775 5.00586H28.6816V15H28.0049V8.50586C28.0049 7.76758 28.0345 6.97005 28.0938 6.11328H28.0391L22.1123 15H21.415V5.00586ZM34.3145 15.1367C33.2526 15.1367 32.4209 14.8018 31.8193 14.1318C31.2178 13.4619 30.917 12.5277 30.917 11.3291C30.917 10.0986 31.2292 9.1416 31.8535 8.45801C32.4779 7.76986 33.3324 7.42578 34.417 7.42578C35.0596 7.42578 35.6748 7.53743 36.2627 7.76074L36.0781 8.3623C35.4355 8.14811 34.8773 8.04102 34.4033 8.04102C33.4919 8.04102 32.8014 8.32357 32.332 8.88867C31.8626 9.44922 31.6279 10.2581 31.6279 11.3154C31.6279 12.318 31.8626 13.1042 32.332 13.6738C32.8014 14.2389 33.4577 14.5215 34.3008 14.5215C34.9753 14.5215 35.6019 14.4007 36.1807 14.1592V14.7881C35.7067 15.0205 35.0846 15.1367 34.3145 15.1367ZM42.7227 8.15723H40.248V15H39.5781V8.15723H37.042V7.56934H42.7227V8.15723ZM50.3994 11.2744C50.3994 12.4867 50.1055 13.4346 49.5176 14.1182C48.9297 14.7972 48.1185 15.1367 47.084 15.1367C46.4323 15.1367 45.8581 14.9795 45.3613 14.665C44.8646 14.3506 44.484 13.8994 44.2197 13.3115C43.9554 12.7236 43.8232 12.0446 43.8232 11.2744C43.8232 10.0622 44.1172 9.11882 44.7051 8.44434C45.293 7.7653 46.0996 7.42578 47.125 7.42578C48.1458 7.42578 48.9456 7.76986 49.5244 8.45801C50.1077 9.1416 50.3994 10.0804 50.3994 11.2744ZM44.5342 11.2744C44.5342 12.2952 44.7575 13.0928 45.2041 13.667C45.6553 14.2367 46.291 14.5215 47.1113 14.5215C47.9316 14.5215 48.5651 14.2367 49.0117 13.667C49.4629 13.0928 49.6885 12.2952 49.6885 11.2744C49.6885 10.249 49.4606 9.45378 49.0049 8.88867C48.5537 8.32357 47.918 8.04102 47.0977 8.04102C46.2773 8.04102 45.6439 8.32357 45.1973 8.88867C44.7552 9.44922 44.5342 10.2445 44.5342 11.2744ZM53.0039 7.56934V10.0576C53.0039 10.6865 53.1566 11.14 53.4619 11.418C53.7673 11.696 54.2367 11.835 54.8701 11.835C55.3167 11.835 55.7428 11.7552 56.1484 11.5957C56.554 11.4362 56.9756 11.181 57.4131 10.8301V7.56934H58.0898V15H57.4131V11.4727C56.9574 11.8236 56.5085 12.0742 56.0664 12.2246C55.6289 12.375 55.1549 12.4502 54.6445 12.4502C53.8835 12.4502 53.307 12.252 52.915 11.8555C52.5277 11.459 52.334 10.887 52.334 10.1396V7.56934H53.0039ZM61.2549 7.56934V10.8301H65.9717V7.56934H66.6416V15H65.9717V11.418H61.2549V15H60.5781V7.56934H61.2549ZM69.7793 7.56934V12.9424L69.7383 14.3438L74.1475 7.56934H75.0498V15H74.4004V9.66113L74.4277 8.22559L70.0186 15H69.1367V7.56934H69.7793ZM81.5781 7.56934H82.4189L79.0898 11.165L82.6582 15H81.749L78.2354 11.2334V15H77.5449V7.56934H78.2354V11.1787L81.5781 7.56934ZM90.5742 15.1367C89.5124 15.1367 88.6807 14.8018 88.0791 14.1318C87.4775 13.4619 87.1768 12.5277 87.1768 11.3291C87.1768 10.0986 87.4889 9.1416 88.1133 8.45801C88.7376 7.76986 89.5921 7.42578 90.6768 7.42578C91.3193 7.42578 91.9346 7.53743 92.5225 7.76074L92.3379 8.3623C91.6953 8.14811 91.137 8.04102 90.6631 8.04102C89.7516 8.04102 89.0612 8.32357 88.5918 8.88867C88.1224 9.44922 87.8877 10.2581 87.8877 11.3154C87.8877 12.318 88.1224 13.1042 88.5918 13.6738C89.0612 14.2389 89.7174 14.5215 90.5605 14.5215C91.235 14.5215 91.8617 14.4007 92.4404 14.1592V14.7881C91.9665 15.0205 91.3444 15.1367 90.5742 15.1367ZM99.9668 9.36035C99.9668 9.82975 99.8506 10.1989 99.6182 10.4678C99.3857 10.7321 99.0075 10.9167 98.4834 11.0215V11.0693C99.0804 11.1377 99.5111 11.3109 99.7754 11.5889C100.044 11.8623 100.179 12.2565 100.179 12.7715C100.179 13.487 99.9417 14.0384 99.4678 14.4258C98.9984 14.8086 98.3102 15 97.4033 15H94.2656V7.56934H97.417C98.2646 7.56934 98.9004 7.72201 99.3242 8.02734C99.7526 8.33268 99.9668 8.77702 99.9668 9.36035ZM99.4609 12.7578C99.4609 11.8464 98.7614 11.3906 97.3623 11.3906H94.9424V14.3574H97.458C98.7933 14.3574 99.4609 13.8242 99.4609 12.7578ZM99.249 9.41504C99.249 8.9821 99.0941 8.67448 98.7842 8.49219C98.4743 8.30534 98.0094 8.21191 97.3896 8.21191H94.9424V10.7549H97.3076C98.0003 10.7549 98.4971 10.6478 98.7979 10.4336C99.0986 10.2194 99.249 9.87988 99.249 9.41504ZM105.196 15.1367C104.116 15.1367 103.273 14.804 102.667 14.1387C102.065 13.4733 101.765 12.5413 101.765 11.3428C101.765 10.1579 102.056 9.20996 102.64 8.49902C103.223 7.78353 104.009 7.42578 104.998 7.42578C105.873 7.42578 106.563 7.73112 107.069 8.3418C107.575 8.95247 107.828 9.7819 107.828 10.8301V11.377H102.476C102.485 12.3978 102.722 13.1771 103.187 13.7148C103.656 14.2526 104.326 14.5215 105.196 14.5215C105.62 14.5215 105.992 14.4919 106.311 14.4326C106.634 14.3734 107.042 14.2458 107.534 14.0498V14.665C107.115 14.8473 106.728 14.9704 106.372 15.0342C106.017 15.1025 105.625 15.1367 105.196 15.1367ZM104.998 8.02734C104.283 8.02734 103.708 8.26432 103.275 8.73828C102.842 9.20768 102.59 9.88672 102.517 10.7754H107.11C107.11 9.91406 106.924 9.24186 106.55 8.75879C106.176 8.27116 105.659 8.02734 104.998 8.02734ZM114.596 8.15723H112.121V15H111.451V8.15723H108.915V7.56934H114.596V8.15723ZM120.639 15L120.468 13.8242H120.413C120.039 14.3027 119.654 14.6423 119.258 14.8428C118.866 15.0387 118.401 15.1367 117.863 15.1367C117.134 15.1367 116.567 14.9499 116.161 14.5762C115.756 14.2025 115.553 13.6852 115.553 13.0244C115.553 12.2998 115.854 11.737 116.455 11.3359C117.061 10.9349 117.936 10.723 119.08 10.7002L120.495 10.6592V10.167C120.495 9.46061 120.352 8.92741 120.064 8.56738C119.777 8.20736 119.315 8.02734 118.677 8.02734C117.989 8.02734 117.275 8.21875 116.537 8.60156L116.284 8.01367C117.1 7.63086 117.907 7.43945 118.704 7.43945C119.52 7.43945 120.128 7.65137 120.529 8.0752C120.935 8.49902 121.138 9.15983 121.138 10.0576V15H120.639ZM117.904 14.5215C118.697 14.5215 119.322 14.2959 119.777 13.8447C120.238 13.389 120.468 12.7578 120.468 11.9512V11.2197L119.169 11.2744C118.125 11.3245 117.38 11.4886 116.934 11.7666C116.492 12.04 116.271 12.4684 116.271 13.0518C116.271 13.5166 116.412 13.8789 116.694 14.1387C116.981 14.3939 117.385 14.5215 117.904 14.5215ZM130.605 15H129.936V7.71973C129.936 7.05892 129.963 6.37305 130.018 5.66211C129.949 5.73047 129.879 5.79655 129.806 5.86035C129.733 5.92415 129.029 6.47786 127.693 7.52148L127.304 7.03613L130.018 5.00586H130.605V15ZM140.969 15H134.714V14.3984L137.373 11.623C138.12 10.8483 138.645 10.2559 138.945 9.8457C139.246 9.43555 139.467 9.04362 139.608 8.66992C139.75 8.29622 139.82 7.9043 139.82 7.49414C139.82 6.89714 139.624 6.41178 139.232 6.03809C138.84 5.66439 138.332 5.47754 137.708 5.47754C136.874 5.47754 136.076 5.7806 135.315 6.38672L134.946 5.91504C135.78 5.21322 136.705 4.8623 137.722 4.8623C138.592 4.8623 139.276 5.09473 139.772 5.55957C140.274 6.02441 140.524 6.66471 140.524 7.48047C140.524 8.14128 140.356 8.78158 140.019 9.40137C139.686 10.0166 139.075 10.7777 138.187 11.6846L135.623 14.3164V14.3438H140.969V15ZM149.787 15.1367C148.725 15.1367 147.894 14.8018 147.292 14.1318C146.69 13.4619 146.39 12.5277 146.39 11.3291C146.39 10.0986 146.702 9.1416 147.326 8.45801C147.951 7.76986 148.805 7.42578 149.89 7.42578C150.532 7.42578 151.147 7.53743 151.735 7.76074L151.551 8.3623C150.908 8.14811 150.35 8.04102 149.876 8.04102C148.965 8.04102 148.274 8.32357 147.805 8.88867C147.335 9.44922 147.101 10.2581 147.101 11.3154C147.101 12.318 147.335 13.1042 147.805 13.6738C148.274 14.2389 148.93 14.5215 149.773 14.5215C150.448 14.5215 151.075 14.4007 151.653 14.1592V14.7881C151.179 15.0205 150.557 15.1367 149.787 15.1367ZM159.18 9.36035C159.18 9.82975 159.063 10.1989 158.831 10.4678C158.599 10.7321 158.22 10.9167 157.696 11.0215V11.0693C158.293 11.1377 158.724 11.3109 158.988 11.5889C159.257 11.8623 159.392 12.2565 159.392 12.7715C159.392 13.487 159.155 14.0384 158.681 14.4258C158.211 14.8086 157.523 15 156.616 15H153.479V7.56934H156.63C157.478 7.56934 158.113 7.72201 158.537 8.02734C158.965 8.33268 159.18 8.77702 159.18 9.36035ZM158.674 12.7578C158.674 11.8464 157.974 11.3906 156.575 11.3906H154.155V14.3574H156.671C158.006 14.3574 158.674 13.8242 158.674 12.7578ZM158.462 9.41504C158.462 8.9821 158.307 8.67448 157.997 8.49219C157.687 8.30534 157.222 8.21191 156.603 8.21191H154.155V10.7549H156.521C157.213 10.7549 157.71 10.6478 158.011 10.4336C158.312 10.2194 158.462 9.87988 158.462 9.41504ZM164.409 15.1367C163.329 15.1367 162.486 14.804 161.88 14.1387C161.278 13.4733 160.978 12.5413 160.978 11.3428C160.978 10.1579 161.269 9.20996 161.853 8.49902C162.436 7.78353 163.222 7.42578 164.211 7.42578C165.086 7.42578 165.776 7.73112 166.282 8.3418C166.788 8.95247 167.041 9.7819 167.041 10.8301V11.377H161.688C161.698 12.3978 161.935 13.1771 162.399 13.7148C162.869 14.2526 163.539 14.5215 164.409 14.5215C164.833 14.5215 165.204 14.4919 165.523 14.4326C165.847 14.3734 166.255 14.2458 166.747 14.0498V14.665C166.328 14.8473 165.94 14.9704 165.585 15.0342C165.229 15.1025 164.838 15.1367 164.409 15.1367ZM164.211 8.02734C163.495 8.02734 162.921 8.26432 162.488 8.73828C162.055 9.20768 161.802 9.88672 161.729 10.7754H166.323C166.323 9.91406 166.136 9.24186 165.763 8.75879C165.389 8.27116 164.872 8.02734 164.211 8.02734ZM173.809 8.15723H171.334V15H170.664V8.15723H168.128V7.56934H173.809V8.15723ZM181.485 11.2744C181.485 12.4867 181.191 13.4346 180.604 14.1182C180.016 14.7972 179.204 15.1367 178.17 15.1367C177.518 15.1367 176.944 14.9795 176.447 14.665C175.951 14.3506 175.57 13.8994 175.306 13.3115C175.041 12.7236 174.909 12.0446 174.909 11.2744C174.909 10.0622 175.203 9.11882 175.791 8.44434C176.379 7.7653 177.186 7.42578 178.211 7.42578C179.232 7.42578 180.032 7.76986 180.61 8.45801C181.194 9.1416 181.485 10.0804 181.485 11.2744ZM175.62 11.2744C175.62 12.2952 175.843 13.0928 176.29 13.667C176.741 14.2367 177.377 14.5215 178.197 14.5215C179.018 14.5215 179.651 14.2367 180.098 13.667C180.549 13.0928 180.774 12.2952 180.774 11.2744C180.774 10.249 180.547 9.45378 180.091 8.88867C179.64 8.32357 179.004 8.04102 178.184 8.04102C177.363 8.04102 176.73 8.32357 176.283 8.88867C175.841 9.44922 175.62 10.2445 175.62 11.2744ZM189.606 17.5225H188.937V15H183.249V17.5225H182.579V14.3574H183.071C183.691 13.487 184.17 12.4775 184.507 11.3291C184.844 10.1807 185.022 8.92741 185.04 7.56934H188.615V14.3574H189.606V17.5225ZM187.938 14.3574V8.19824H185.628C185.519 10.6637 184.922 12.7168 183.837 14.3574H187.938ZM191.828 7.56934V12.9424L191.787 14.3438L196.196 7.56934H197.099V15H196.449V9.66113L196.477 8.22559L192.067 15H191.186V7.56934H191.828ZM205.739 11.2744C205.739 12.4867 205.445 13.4346 204.857 14.1182C204.27 14.7972 203.458 15.1367 202.424 15.1367C201.772 15.1367 201.198 14.9795 200.701 14.665C200.204 14.3506 199.824 13.8994 199.56 13.3115C199.295 12.7236 199.163 12.0446 199.163 11.2744C199.163 10.0622 199.457 9.11882 200.045 8.44434C200.633 7.7653 201.439 7.42578 202.465 7.42578C203.486 7.42578 204.285 7.76986 204.864 8.45801C205.448 9.1416 205.739 10.0804 205.739 11.2744ZM199.874 11.2744C199.874 12.2952 200.097 13.0928 200.544 13.667C200.995 14.2367 201.631 14.5215 202.451 14.5215C203.271 14.5215 203.905 14.2367 204.352 13.667C204.803 13.0928 205.028 12.2952 205.028 11.2744C205.028 10.249 204.8 9.45378 204.345 8.88867C203.894 8.32357 203.258 8.04102 202.438 8.04102C201.617 8.04102 200.984 8.32357 200.537 8.88867C200.095 9.44922 199.874 10.2445 199.874 11.2744ZM213.86 17.5225H213.19V15H207.503V17.5225H206.833V14.3574H207.325C207.945 13.487 208.424 12.4775 208.761 11.3291C209.098 10.1807 209.276 8.92741 209.294 7.56934H212.869V14.3574H213.86V17.5225ZM212.192 14.3574V8.19824H209.882C209.772 10.6637 209.175 12.7168 208.091 14.3574H212.192ZM221.585 11.2744C221.585 12.4867 221.291 13.4346 220.703 14.1182C220.115 14.7972 219.304 15.1367 218.27 15.1367C217.618 15.1367 217.044 14.9795 216.547 14.665C216.05 14.3506 215.67 13.8994 215.405 13.3115C215.141 12.7236 215.009 12.0446 215.009 11.2744C215.009 10.0622 215.303 9.11882 215.891 8.44434C216.479 7.7653 217.285 7.42578 218.311 7.42578C219.331 7.42578 220.131 7.76986 220.71 8.45801C221.293 9.1416 221.585 10.0804 221.585 11.2744ZM215.72 11.2744C215.72 12.2952 215.943 13.0928 216.39 13.667C216.841 14.2367 217.477 14.5215 218.297 14.5215C219.117 14.5215 219.751 14.2367 220.197 13.667C220.648 13.0928 220.874 12.2952 220.874 11.2744C220.874 10.249 220.646 9.45378 220.19 8.88867C219.739 8.32357 219.104 8.04102 218.283 8.04102C217.463 8.04102 216.829 8.32357 216.383 8.88867C215.941 9.44922 215.72 10.2445 215.72 11.2744ZM229.344 9.36035C229.344 9.82975 229.228 10.1989 228.995 10.4678C228.763 10.7321 228.384 10.9167 227.86 11.0215V11.0693C228.457 11.1377 228.888 11.3109 229.152 11.5889C229.421 11.8623 229.556 12.2565 229.556 12.7715C229.556 13.487 229.319 14.0384 228.845 14.4258C228.375 14.8086 227.687 15 226.78 15H223.643V7.56934H226.794C227.642 7.56934 228.277 7.72201 228.701 8.02734C229.13 8.33268 229.344 8.77702 229.344 9.36035ZM228.838 12.7578C228.838 11.8464 228.138 11.3906 226.739 11.3906H224.319V14.3574H226.835C228.17 14.3574 228.838 13.8242 228.838 12.7578ZM228.626 9.41504C228.626 8.9821 228.471 8.67448 228.161 8.49219C227.851 8.30534 227.386 8.21191 226.767 8.21191H224.319V10.7549H226.685C227.377 10.7549 227.874 10.6478 228.175 10.4336C228.476 10.2194 228.626 9.87988 228.626 9.41504ZM236.077 10.6455V15H235.38V5.00586H237.759C238.998 5.00586 239.914 5.236 240.507 5.69629C241.099 6.15202 241.396 6.84017 241.396 7.76074C241.396 8.43066 241.218 8.99577 240.862 9.45605C240.511 9.91634 239.976 10.2467 239.256 10.4473L241.97 15H241.136L238.559 10.6455H236.077ZM236.077 10.0439H237.984C238.827 10.0439 239.481 9.8571 239.946 9.4834C240.411 9.10514 240.644 8.54915 240.644 7.81543C240.644 7.05436 240.416 6.50065 239.96 6.1543C239.504 5.80794 238.761 5.63477 237.731 5.63477H236.077V10.0439ZM247.637 9.96191H251.321V14.5215C250.355 14.9316 249.268 15.1367 248.061 15.1367C246.484 15.1367 245.274 14.6924 244.431 13.8037C243.592 12.9105 243.173 11.6481 243.173 10.0166C243.173 9.00033 243.38 8.10026 243.795 7.31641C244.214 6.52799 244.811 5.9196 245.586 5.49121C246.365 5.06283 247.258 4.84863 248.266 4.84863C249.355 4.84863 250.332 5.04915 251.198 5.4502L250.918 6.0791C250.052 5.67806 249.154 5.47754 248.225 5.47754C246.908 5.47754 245.862 5.88542 245.087 6.70117C244.317 7.51237 243.932 8.6084 243.932 9.98926C243.932 11.4932 244.299 12.6257 245.032 13.3867C245.766 14.1432 246.844 14.5215 248.266 14.5215C249.186 14.5215 249.968 14.3916 250.61 14.1318V10.6182H247.637V9.96191ZM253.837 5.00586H256.578C257.813 5.00586 258.72 5.21549 259.299 5.63477C259.878 6.05404 260.167 6.6875 260.167 7.53516C260.167 8.11393 259.989 8.59701 259.634 8.98438C259.283 9.36719 258.768 9.61328 258.089 9.72266V9.76367C258.886 9.88216 259.472 10.1351 259.846 10.5225C260.224 10.9053 260.413 11.4408 260.413 12.1289C260.413 13.0495 260.108 13.7581 259.497 14.2549C258.886 14.7516 258.021 15 256.899 15H253.837V5.00586ZM254.534 9.45605H256.735C257.674 9.45605 258.355 9.30111 258.779 8.99121C259.208 8.67676 259.422 8.18685 259.422 7.52148C259.422 6.85612 259.18 6.37305 258.697 6.07227C258.219 5.77148 257.503 5.62109 256.551 5.62109H254.534V9.45605ZM254.534 10.0713V14.3848H256.886C258.736 14.3848 259.661 13.6328 259.661 12.1289C259.661 10.7572 258.686 10.0713 256.735 10.0713H254.534ZM270.578 15H270.004L267.81 7.28906C267.627 6.6556 267.491 6.13607 267.399 5.73047C267.326 6.12695 267.222 6.58268 267.085 7.09766C266.953 7.61263 266.219 10.2467 264.884 15H264.296L261.548 5.00586H262.279L264.029 11.4453C264.098 11.7051 264.161 11.9466 264.221 12.1699C264.28 12.3887 264.332 12.596 264.378 12.792C264.428 12.9834 264.471 13.1702 264.508 13.3525C264.549 13.5303 264.585 13.7103 264.617 13.8926C264.727 13.2728 264.959 12.3317 265.314 11.0693L267.023 5.00586H267.796L269.799 11.9648C270.031 12.7669 270.198 13.4141 270.298 13.9062C270.357 13.5781 270.432 13.2295 270.523 12.8604C270.619 12.4912 271.323 9.87305 272.636 5.00586H273.34L270.578 15ZM21.9209 34H21.2441V26.5693H27.1709V34H26.4941V27.2119H21.9209V34ZM35.8115 30.2744C35.8115 31.4867 35.5176 32.4346 34.9297 33.1182C34.3418 33.7972 33.5306 34.1367 32.4961 34.1367C31.8444 34.1367 31.2702 33.9795 30.7734 33.665C30.2767 33.3506 29.8962 32.8994 29.6318 32.3115C29.3675 31.7236 29.2354 31.0446 29.2354 30.2744C29.2354 29.0622 29.5293 28.1188 30.1172 27.4443C30.7051 26.7653 31.5117 26.4258 32.5371 26.4258C33.5579 26.4258 34.3577 26.7699 34.9365 27.458C35.5199 28.1416 35.8115 29.0804 35.8115 30.2744ZM29.9463 30.2744C29.9463 31.2952 30.1696 32.0928 30.6162 32.667C31.0674 33.2367 31.7031 33.5215 32.5234 33.5215C33.3438 33.5215 33.9772 33.2367 34.4238 32.667C34.875 32.0928 35.1006 31.2952 35.1006 30.2744C35.1006 29.249 34.8727 28.4538 34.417 27.8887C33.9658 27.3236 33.3301 27.041 32.5098 27.041C31.6895 27.041 31.056 27.3236 30.6094 27.8887C30.1673 28.4492 29.9463 29.2445 29.9463 30.2744ZM44.9238 34H44.2539V26.7197C44.2539 26.0589 44.2812 25.373 44.3359 24.6621C44.2676 24.7305 44.1969 24.7965 44.124 24.8604C44.0511 24.9242 43.347 25.4779 42.0117 26.5215L41.6221 26.0361L44.3359 24.0059H44.9238V34ZM51.9307 27.9912C52.9971 27.9912 53.8356 28.2487 54.4463 28.7637C55.0615 29.2786 55.3691 29.9873 55.3691 30.8896C55.3691 31.915 55.0501 32.7126 54.4121 33.2822C53.7741 33.8519 52.8945 34.1367 51.7734 34.1367C51.2767 34.1367 50.805 34.0889 50.3584 33.9932C49.9118 33.8929 49.5381 33.7516 49.2373 33.5693V32.8652C49.7295 33.1159 50.167 33.2913 50.5498 33.3916C50.9326 33.4873 51.3405 33.5352 51.7734 33.5352C52.6484 33.5352 53.3503 33.305 53.8789 32.8447C54.4076 32.3799 54.6719 31.7533 54.6719 30.9648C54.6719 30.222 54.4144 29.6387 53.8994 29.2148C53.3844 28.791 52.6849 28.5791 51.8008 28.5791C51.2083 28.5791 50.5885 28.668 49.9414 28.8457L49.5312 28.5791L49.9277 24.0059H54.7402V24.6621H50.5703L50.2627 28.1895C50.9736 28.0573 51.5296 27.9912 51.9307 27.9912ZM61.3096 24.0059H64.0508C65.2858 24.0059 66.1927 24.2155 66.7715 24.6348C67.3503 25.054 67.6396 25.6875 67.6396 26.5352C67.6396 27.1139 67.4619 27.597 67.1064 27.9844C66.7555 28.3672 66.2406 28.6133 65.5615 28.7227V28.7637C66.359 28.8822 66.9447 29.1351 67.3184 29.5225C67.6966 29.9053 67.8857 30.4408 67.8857 31.1289C67.8857 32.0495 67.5804 32.7581 66.9697 33.2549C66.359 33.7516 65.4932 34 64.3721 34H61.3096V24.0059ZM62.0068 28.4561H64.208C65.1468 28.4561 65.8281 28.3011 66.252 27.9912C66.6803 27.6768 66.8945 27.1868 66.8945 26.5215C66.8945 25.8561 66.653 25.373 66.1699 25.0723C65.6914 24.7715 64.9759 24.6211 64.0234 24.6211H62.0068V28.4561ZM62.0068 29.0713V33.3848H64.3584C66.2087 33.3848 67.1338 32.6328 67.1338 31.1289C67.1338 29.7572 66.1585 29.0713 64.208 29.0713H62.0068ZM74.6328 27.1572H72.1582V34H71.4883V27.1572H68.9521V26.5693H74.6328V27.1572ZM83.834 26.5693H84.6748L81.3457 30.165L84.9141 34H84.0049L80.4912 30.2334V34H79.8008V26.5693H80.4912V30.1787L83.834 26.5693ZM90.7383 34L90.5674 32.8242H90.5127C90.139 33.3027 89.7539 33.6423 89.3574 33.8428C88.9655 34.0387 88.5007 34.1367 87.9629 34.1367C87.2337 34.1367 86.6663 33.9499 86.2607 33.5762C85.8551 33.2025 85.6523 32.6852 85.6523 32.0244C85.6523 31.2998 85.9531 30.737 86.5547 30.3359C87.1608 29.9349 88.0358 29.723 89.1797 29.7002L90.5947 29.6592V29.167C90.5947 28.4606 90.4512 27.9274 90.1641 27.5674C89.877 27.2074 89.4144 27.0273 88.7764 27.0273C88.0882 27.0273 87.375 27.2188 86.6367 27.6016L86.3838 27.0137C87.1995 26.6309 88.0062 26.4395 88.8037 26.4395C89.6195 26.4395 90.2279 26.6514 90.6289 27.0752C91.0345 27.499 91.2373 28.1598 91.2373 29.0576V34H90.7383ZM88.0039 33.5215C88.7969 33.5215 89.4212 33.2959 89.877 32.8447C90.3372 32.389 90.5674 31.7578 90.5674 30.9512V30.2197L89.2686 30.2744C88.2249 30.3245 87.4798 30.4886 87.0332 30.7666C86.5911 31.04 86.3701 31.4684 86.3701 32.0518C86.3701 32.5166 86.5114 32.8789 86.7939 33.1387C87.0811 33.3939 87.4844 33.5215 88.0039 33.5215ZM96.7197 26.5693H97.4033V30.1787L100.596 26.5693H101.423L98.2031 30.1787L101.676 34H100.808L97.4033 30.2334V34H96.7197V30.2334L93.3154 34H92.4473L95.9062 30.2061L92.7002 26.5693H93.5273L96.7197 30.1787V26.5693ZM109.024 36.5225H108.354V34H102.667V36.5225H101.997V33.3574H102.489C103.109 32.487 103.588 31.4775 103.925 30.3291C104.262 29.1807 104.44 27.9274 104.458 26.5693H108.033V33.3574H109.024V36.5225ZM107.356 33.3574V27.1982H105.046C104.937 29.6637 104.34 31.7168 103.255 33.3574H107.356ZM111.28 29.7002H113.646C115.391 29.7002 116.264 30.3861 116.264 31.7578C116.264 32.4642 116.02 33.0156 115.532 33.4121C115.045 33.804 114.345 34 113.434 34H110.604V26.5693H111.28V29.7002ZM111.28 30.3428V33.3574H113.543C114.186 33.3574 114.68 33.223 115.026 32.9541C115.373 32.6852 115.546 32.2819 115.546 31.7441C115.546 31.252 115.393 30.8965 115.088 30.6777C114.783 30.4544 114.254 30.3428 113.502 30.3428H111.28ZM118.232 34H117.562V26.5693H118.232V34ZM121.377 26.5693V31.9424L121.336 33.3438L125.745 26.5693H126.647V34H125.998V28.6611L126.025 27.2256L121.616 34H120.734V26.5693H121.377ZM123.694 25.5166C123.015 25.5166 122.498 25.3662 122.143 25.0654C121.787 24.7601 121.58 24.2702 121.521 23.5957H122.122C122.19 24.097 122.345 24.4525 122.587 24.6621C122.828 24.8672 123.202 24.9697 123.708 24.9697C124.209 24.9697 124.581 24.8626 124.822 24.6484C125.068 24.4342 125.219 24.0833 125.273 23.5957H125.875C125.779 24.8763 125.052 25.5166 123.694 25.5166ZM21.8867 72.1367C21.3444 72.1367 20.9069 72.0684 20.5742 71.9316V71.2275C20.9661 71.3962 21.3809 71.4805 21.8184 71.4805C22.1465 71.4805 22.4268 71.4258 22.6592 71.3164C22.8962 71.2025 23.1149 71.0225 23.3154 70.7764C23.516 70.5257 23.7598 70.1087 24.0469 69.5254L20.0684 62.0059H20.8955L23.9512 67.8438C24.1107 68.1582 24.2542 68.484 24.3818 68.8213H24.4092L24.5801 68.4043L27.4512 62.0059H28.2305L25.0244 69.0332C24.8193 69.4844 24.6234 69.9014 24.4365 70.2842C24.2497 70.6624 24.0423 70.9883 23.8145 71.2617C23.5866 71.5352 23.32 71.7493 23.0146 71.9043C22.7093 72.0592 22.3333 72.1367 21.8867 72.1367ZM33.8428 65.1572H30.1514V72H29.4746V64.5693H33.8428V65.1572ZM41.5127 68.2744C41.5127 69.4867 41.2188 70.4346 40.6309 71.1182C40.043 71.7972 39.2318 72.1367 38.1973 72.1367C37.5456 72.1367 36.9714 71.9795 36.4746 71.665C35.9779 71.3506 35.5973 70.8994 35.333 70.3115C35.0687 69.7236 34.9365 69.0446 34.9365 68.2744C34.9365 67.0622 35.2305 66.1188 35.8184 65.4443C36.4062 64.7653 37.2129 64.4258 38.2383 64.4258C39.2591 64.4258 40.0589 64.7699 40.6377 65.458C41.221 66.1416 41.5127 67.0804 41.5127 68.2744ZM35.6475 68.2744C35.6475 69.2952 35.8708 70.0928 36.3174 70.667C36.7686 71.2367 37.4043 71.5215 38.2246 71.5215C39.0449 71.5215 39.6784 71.2367 40.125 70.667C40.5762 70.0928 40.8018 69.2952 40.8018 68.2744C40.8018 67.249 40.5739 66.4538 40.1182 65.8887C39.667 65.3236 39.0312 65.041 38.2109 65.041C37.3906 65.041 36.7572 65.3236 36.3105 65.8887C35.8685 66.4492 35.6475 67.2445 35.6475 68.2744ZM48.7109 72H48.041V65.1982H45.4092C45.2725 66.9984 45.1038 68.3724 44.9033 69.3203C44.7074 70.2637 44.4521 70.9587 44.1377 71.4053C43.8278 71.8473 43.4245 72.0684 42.9277 72.0684C42.75 72.0684 42.5951 72.0501 42.4629 72.0137V71.3984C42.5495 71.4258 42.6725 71.4395 42.832 71.4395C43.347 71.4395 43.7617 70.8971 44.0762 69.8125C44.3952 68.7233 44.6367 66.9756 44.8008 64.5693H48.7109V72ZM58.0146 72.1367C56.8708 72.1367 56.0368 71.7083 55.5127 70.8516H55.4648L55.4854 71.4258C55.5036 71.763 55.5127 72.1322 55.5127 72.5332V75.3633H54.8359V64.5693H55.4102L55.54 65.6289H55.5811C56.0915 64.8268 56.9072 64.4258 58.0283 64.4258C59.0309 64.4258 59.7943 64.7562 60.3184 65.417C60.847 66.0732 61.1113 67.0303 61.1113 68.2881C61.1113 69.5094 60.8333 70.4574 60.2773 71.1318C59.7259 71.8018 58.9717 72.1367 58.0146 72.1367ZM58.001 71.5352C58.762 71.5352 59.3499 71.2526 59.7646 70.6875C60.1839 70.1224 60.3936 69.3317 60.3936 68.3154C60.3936 66.1325 59.6051 65.041 58.0283 65.041C57.1624 65.041 56.5267 65.2803 56.1211 65.7588C55.7155 66.2327 55.5127 67.0075 55.5127 68.083V68.3018C55.5127 69.4639 55.7064 70.2933 56.0938 70.79C56.4857 71.2868 57.1214 71.5352 58.001 71.5352ZM67.6875 72L67.5166 70.8242H67.4619C67.0882 71.3027 66.7031 71.6423 66.3066 71.8428C65.9147 72.0387 65.4499 72.1367 64.9121 72.1367C64.1829 72.1367 63.6156 71.9499 63.21 71.5762C62.8044 71.2025 62.6016 70.6852 62.6016 70.0244C62.6016 69.2998 62.9023 68.737 63.5039 68.3359C64.11 67.9349 64.985 67.723 66.1289 67.7002L67.5439 67.6592V67.167C67.5439 66.4606 67.4004 65.9274 67.1133 65.5674C66.8262 65.2074 66.3636 65.0273 65.7256 65.0273C65.0374 65.0273 64.3242 65.2188 63.5859 65.6016L63.333 65.0137C64.1488 64.6309 64.9554 64.4395 65.7529 64.4395C66.5687 64.4395 67.1771 64.6514 67.5781 65.0752C67.9837 65.499 68.1865 66.1598 68.1865 67.0576V72H67.6875ZM64.9531 71.5215C65.7461 71.5215 66.3704 71.2959 66.8262 70.8447C67.2865 70.389 67.5166 69.7578 67.5166 68.9512V68.2197L66.2178 68.2744C65.1742 68.3245 64.429 68.4886 63.9824 68.7666C63.5404 69.04 63.3193 69.4684 63.3193 70.0518C63.3193 70.5166 63.4606 70.8789 63.7432 71.1387C64.0303 71.3939 64.4336 71.5215 64.9531 71.5215ZM73.5664 72.1367C72.5046 72.1367 71.6729 71.8018 71.0713 71.1318C70.4697 70.4619 70.1689 69.5277 70.1689 68.3291C70.1689 67.0986 70.4811 66.1416 71.1055 65.458C71.7298 64.7699 72.5843 64.4258 73.6689 64.4258C74.3115 64.4258 74.9268 64.5374 75.5146 64.7607L75.3301 65.3623C74.6875 65.1481 74.1292 65.041 73.6553 65.041C72.7438 65.041 72.0534 65.3236 71.584 65.8887C71.1146 66.4492 70.8799 67.2581 70.8799 68.3154C70.8799 69.318 71.1146 70.1042 71.584 70.6738C72.0534 71.2389 72.7096 71.5215 73.5527 71.5215C74.2272 71.5215 74.8538 71.4007 75.4326 71.1592V71.7881C74.9587 72.0205 74.3366 72.1367 73.5664 72.1367ZM81.291 64.5693H82.1318L78.8027 68.165L82.3711 72H81.4619L77.9482 68.2334V72H77.2578V64.5693H77.9482V68.1787L81.291 64.5693ZM86.8623 72.1367C85.7184 72.1367 84.8844 71.7083 84.3604 70.8516H84.3125L84.333 71.4258C84.3512 71.763 84.3604 72.1322 84.3604 72.5332V75.3633H83.6836V64.5693H84.2578L84.3877 65.6289H84.4287C84.9391 64.8268 85.7549 64.4258 86.876 64.4258C87.8786 64.4258 88.6419 64.7562 89.166 65.417C89.6947 66.0732 89.959 67.0303 89.959 68.2881C89.959 69.5094 89.681 70.4574 89.125 71.1318C88.5736 71.8018 87.8193 72.1367 86.8623 72.1367ZM86.8486 71.5352C87.6097 71.5352 88.1976 71.2526 88.6123 70.6875C89.0316 70.1224 89.2412 69.3317 89.2412 68.3154C89.2412 66.1325 88.4528 65.041 86.876 65.041C86.0101 65.041 85.3743 65.2803 84.9688 65.7588C84.5632 66.2327 84.3604 67.0075 84.3604 68.083V68.3018C84.3604 69.4639 84.554 70.2933 84.9414 70.79C85.3333 71.2868 85.9691 71.5352 86.8486 71.5352ZM92.7002 67.7002H95.0654C96.8109 67.7002 97.6836 68.3861 97.6836 69.7578C97.6836 70.4642 97.4398 71.0156 96.9521 71.4121C96.4645 71.804 95.765 72 94.8535 72H92.0234V64.5693H92.7002V67.7002ZM92.7002 68.3428V71.3574H94.9629C95.6055 71.3574 96.0999 71.223 96.4463 70.9541C96.7926 70.6852 96.9658 70.2819 96.9658 69.7441C96.9658 69.252 96.8132 68.8965 96.5078 68.6777C96.2025 68.4544 95.6738 68.3428 94.9219 68.3428H92.7002ZM99.6523 72H98.9824V64.5693H99.6523V72ZM106.871 65.1572H104.396V72H103.727V65.1572H101.19V64.5693H106.871V65.1572ZM109.045 64.5693V69.9424L109.004 71.3438L113.413 64.5693H114.315V72H113.666V66.6611L113.693 65.2256L109.284 72H108.402V64.5693H109.045ZM116.701 72H115.847L118.089 68.7939C117.405 68.6663 116.911 68.4294 116.605 68.083C116.305 67.7367 116.154 67.2923 116.154 66.75C116.154 66.0755 116.38 65.5446 116.831 65.1572C117.287 64.7653 117.897 64.5693 118.663 64.5693H121.726V72H121.056V68.876H118.786L116.701 72ZM116.865 66.7227C116.865 67.2331 117.029 67.6136 117.357 67.8643C117.69 68.1104 118.189 68.2334 118.854 68.2334H121.056V65.2119H118.649C118.084 65.2119 117.645 65.3418 117.33 65.6016C117.02 65.8568 116.865 66.2305 116.865 66.7227ZM128.896 72L133.012 62.6621H127.358V62.0059H133.825V62.5049L129.696 72H128.896ZM135.562 63.9062C135.562 63.3047 135.757 62.8148 136.149 62.4365C136.546 62.0537 137.031 61.8623 137.605 61.8623C138.18 61.8623 138.663 62.0537 139.055 62.4365C139.451 62.8148 139.649 63.3047 139.649 63.9062C139.649 64.5078 139.451 65 139.055 65.3828C138.663 65.7611 138.18 65.9502 137.605 65.9502C137.013 65.9502 136.523 65.7611 136.136 65.3828C135.753 65.0046 135.562 64.5124 135.562 63.9062ZM136.177 63.9062C136.177 64.321 136.316 64.6719 136.594 64.959C136.872 65.2461 137.209 65.3896 137.605 65.3896C137.997 65.3896 138.332 65.2484 138.61 64.9658C138.893 64.6833 139.034 64.3301 139.034 63.9062C139.034 63.487 138.897 63.1361 138.624 62.8535C138.351 62.5664 138.011 62.4229 137.605 62.4229C137.195 62.4229 136.854 62.5687 136.58 62.8604C136.311 63.152 136.177 63.5007 136.177 63.9062ZM21.415 100.006H24.1562C25.3913 100.006 26.2982 100.215 26.877 100.635C27.4557 101.054 27.7451 101.688 27.7451 102.535C27.7451 103.114 27.5674 103.597 27.2119 103.984C26.861 104.367 26.346 104.613 25.667 104.723V104.764C26.4645 104.882 27.0501 105.135 27.4238 105.522C27.8021 105.905 27.9912 106.441 27.9912 107.129C27.9912 108.049 27.6859 108.758 27.0752 109.255C26.4645 109.752 25.5986 110 24.4775 110H21.415V100.006ZM22.1123 104.456H24.3135C25.2523 104.456 25.9336 104.301 26.3574 103.991C26.7858 103.677 27 103.187 27 102.521C27 101.856 26.7585 101.373 26.2754 101.072C25.7969 100.771 25.0814 100.621 24.1289 100.621H22.1123V104.456ZM22.1123 105.071V109.385H24.4639C26.3141 109.385 27.2393 108.633 27.2393 107.129C27.2393 105.757 26.264 105.071 24.3135 105.071H22.1123ZM37.6914 102.569H38.5322L35.2031 106.165L38.7715 110H37.8623L34.3486 106.233V110H33.6582V102.569H34.3486V106.179L37.6914 102.569ZM46.2295 106.274C46.2295 107.487 45.9355 108.435 45.3477 109.118C44.7598 109.797 43.9486 110.137 42.9141 110.137C42.2624 110.137 41.6882 109.979 41.1914 109.665C40.6947 109.351 40.3141 108.899 40.0498 108.312C39.7855 107.724 39.6533 107.045 39.6533 106.274C39.6533 105.062 39.9473 104.119 40.5352 103.444C41.123 102.765 41.9297 102.426 42.9551 102.426C43.9759 102.426 44.7757 102.77 45.3545 103.458C45.9378 104.142 46.2295 105.08 46.2295 106.274ZM40.3643 106.274C40.3643 107.295 40.5876 108.093 41.0342 108.667C41.4854 109.237 42.1211 109.521 42.9414 109.521C43.7617 109.521 44.3952 109.237 44.8418 108.667C45.293 108.093 45.5186 107.295 45.5186 106.274C45.5186 105.249 45.2907 104.454 44.835 103.889C44.3838 103.324 43.748 103.041 42.9277 103.041C42.1074 103.041 41.474 103.324 41.0273 103.889C40.5853 104.449 40.3643 105.244 40.3643 106.274ZM51.7461 109.275L52.1699 108.079L54.3096 102.569H55.2461V110H54.6035V103.39C54.5033 103.677 54.3962 103.971 54.2822 104.271C54.1729 104.572 53.43 106.482 52.0537 110H51.4521L49.3945 104.777C49.3079 104.568 49.2259 104.347 49.1484 104.114C49.0755 103.882 48.9935 103.631 48.9023 103.362V110H48.2871V102.569H49.1826L51.3291 108.038C51.4977 108.48 51.6367 108.893 51.7461 109.275ZM58.4111 110H57.7344V102.569H63.6611V110H62.9844V103.212H58.4111V110ZM71.2969 110H70.627V103.198H67.9951C67.8584 104.998 67.6898 106.372 67.4893 107.32C67.2933 108.264 67.0381 108.959 66.7236 109.405C66.4137 109.847 66.0104 110.068 65.5137 110.068C65.3359 110.068 65.181 110.05 65.0488 110.014V109.398C65.1354 109.426 65.2585 109.439 65.418 109.439C65.9329 109.439 66.3477 108.897 66.6621 107.812C66.9811 106.723 67.2227 104.976 67.3867 102.569H71.2969V110ZM76.7861 110.137C75.7061 110.137 74.863 109.804 74.2568 109.139C73.6553 108.473 73.3545 107.541 73.3545 106.343C73.3545 105.158 73.6462 104.21 74.2295 103.499C74.8128 102.784 75.599 102.426 76.5879 102.426C77.4629 102.426 78.1533 102.731 78.6592 103.342C79.165 103.952 79.418 104.782 79.418 105.83V106.377H74.0654C74.0745 107.398 74.3115 108.177 74.7764 108.715C75.2458 109.253 75.9157 109.521 76.7861 109.521C77.21 109.521 77.5814 109.492 77.9004 109.433C78.224 109.373 78.6318 109.246 79.124 109.05V109.665C78.7048 109.847 78.3174 109.97 77.9619 110.034C77.6064 110.103 77.2145 110.137 76.7861 110.137ZM76.5879 103.027C75.8724 103.027 75.2982 103.264 74.8652 103.738C74.4323 104.208 74.1794 104.887 74.1064 105.775H78.7002C78.7002 104.914 78.5133 104.242 78.1396 103.759C77.766 103.271 77.2487 103.027 76.5879 103.027ZM85.502 102.569H86.3428L83.0137 106.165L86.582 110H85.6729L82.1592 106.233V110H81.4688V102.569H82.1592V106.179L85.502 102.569ZM92.6113 103.157H90.1367V110H89.4668V103.157H86.9307V102.569H92.6113V103.157ZM97.1436 110.137C96.0635 110.137 95.2204 109.804 94.6143 109.139C94.0127 108.473 93.7119 107.541 93.7119 106.343C93.7119 105.158 94.0036 104.21 94.5869 103.499C95.1702 102.784 95.9564 102.426 96.9453 102.426C97.8203 102.426 98.5107 102.731 99.0166 103.342C99.5225 103.952 99.7754 104.782 99.7754 105.83V106.377H94.4229C94.432 107.398 94.6689 108.177 95.1338 108.715C95.6032 109.253 96.2731 109.521 97.1436 109.521C97.5674 109.521 97.9388 109.492 98.2578 109.433C98.5814 109.373 98.9893 109.246 99.4814 109.05V109.665C99.0622 109.847 98.6748 109.97 98.3193 110.034C97.9639 110.103 97.5719 110.137 97.1436 110.137ZM96.9453 103.027C96.2298 103.027 95.6556 103.264 95.2227 103.738C94.7897 104.208 94.5368 104.887 94.4639 105.775H99.0576C99.0576 104.914 98.8708 104.242 98.4971 103.759C98.1234 103.271 97.6061 103.027 96.9453 103.027ZM108.642 110.137C107.498 110.137 106.664 109.708 106.14 108.852H106.092L106.112 109.426C106.131 109.763 106.14 110.132 106.14 110.533V113.363H105.463V102.569H106.037L106.167 103.629H106.208C106.718 102.827 107.534 102.426 108.655 102.426C109.658 102.426 110.421 102.756 110.945 103.417C111.474 104.073 111.738 105.03 111.738 106.288C111.738 107.509 111.46 108.457 110.904 109.132C110.353 109.802 109.599 110.137 108.642 110.137ZM108.628 109.535C109.389 109.535 109.977 109.253 110.392 108.688C110.811 108.122 111.021 107.332 111.021 106.315C111.021 104.132 110.232 103.041 108.655 103.041C107.789 103.041 107.154 103.28 106.748 103.759C106.342 104.233 106.14 105.007 106.14 106.083V106.302C106.14 107.464 106.333 108.293 106.721 108.79C107.113 109.287 107.748 109.535 108.628 109.535ZM118.314 110L118.144 108.824H118.089C117.715 109.303 117.33 109.642 116.934 109.843C116.542 110.039 116.077 110.137 115.539 110.137C114.81 110.137 114.243 109.95 113.837 109.576C113.431 109.202 113.229 108.685 113.229 108.024C113.229 107.3 113.529 106.737 114.131 106.336C114.737 105.935 115.612 105.723 116.756 105.7L118.171 105.659V105.167C118.171 104.461 118.027 103.927 117.74 103.567C117.453 103.207 116.991 103.027 116.353 103.027C115.664 103.027 114.951 103.219 114.213 103.602L113.96 103.014C114.776 102.631 115.582 102.439 116.38 102.439C117.196 102.439 117.804 102.651 118.205 103.075C118.611 103.499 118.813 104.16 118.813 105.058V110H118.314ZM115.58 109.521C116.373 109.521 116.997 109.296 117.453 108.845C117.913 108.389 118.144 107.758 118.144 106.951V106.22L116.845 106.274C115.801 106.325 115.056 106.489 114.609 106.767C114.167 107.04 113.946 107.468 113.946 108.052C113.946 108.517 114.088 108.879 114.37 109.139C114.657 109.394 115.061 109.521 115.58 109.521ZM124.193 110.137C123.132 110.137 122.3 109.802 121.698 109.132C121.097 108.462 120.796 107.528 120.796 106.329C120.796 105.099 121.108 104.142 121.732 103.458C122.357 102.77 123.211 102.426 124.296 102.426C124.938 102.426 125.554 102.537 126.142 102.761L125.957 103.362C125.314 103.148 124.756 103.041 124.282 103.041C123.371 103.041 122.68 103.324 122.211 103.889C121.742 104.449 121.507 105.258 121.507 106.315C121.507 107.318 121.742 108.104 122.211 108.674C122.68 109.239 123.337 109.521 124.18 109.521C124.854 109.521 125.481 109.401 126.06 109.159V109.788C125.586 110.021 124.964 110.137 124.193 110.137ZM130.852 110.137C129.79 110.137 128.958 109.802 128.356 109.132C127.755 108.462 127.454 107.528 127.454 106.329C127.454 105.099 127.766 104.142 128.391 103.458C129.015 102.77 129.869 102.426 130.954 102.426C131.597 102.426 132.212 102.537 132.8 102.761L132.615 103.362C131.973 103.148 131.414 103.041 130.94 103.041C130.029 103.041 129.339 103.324 128.869 103.889C128.4 104.449 128.165 105.258 128.165 106.315C128.165 107.318 128.4 108.104 128.869 108.674C129.339 109.239 129.995 109.521 130.838 109.521C131.512 109.521 132.139 109.401 132.718 109.159V109.788C132.244 110.021 131.622 110.137 130.852 110.137ZM137.544 110.137C136.464 110.137 135.621 109.804 135.015 109.139C134.413 108.473 134.112 107.541 134.112 106.343C134.112 105.158 134.404 104.21 134.987 103.499C135.571 102.784 136.357 102.426 137.346 102.426C138.221 102.426 138.911 102.731 139.417 103.342C139.923 103.952 140.176 104.782 140.176 105.83V106.377H134.823C134.832 107.398 135.069 108.177 135.534 108.715C136.004 109.253 136.674 109.521 137.544 109.521C137.968 109.521 138.339 109.492 138.658 109.433C138.982 109.373 139.39 109.246 139.882 109.05V109.665C139.463 109.847 139.075 109.97 138.72 110.034C138.364 110.103 137.972 110.137 137.544 110.137ZM137.346 103.027C136.63 103.027 136.056 103.264 135.623 103.738C135.19 104.208 134.937 104.887 134.864 105.775H139.458C139.458 104.914 139.271 104.242 138.897 103.759C138.524 103.271 138.007 103.027 137.346 103.027ZM142.869 102.569V107.942L142.828 109.344L147.237 102.569H148.14V110H147.49V104.661L147.518 103.226L143.108 110H142.227V102.569H142.869ZM156.336 104.36C156.336 104.83 156.22 105.199 155.987 105.468C155.755 105.732 155.377 105.917 154.853 106.021V106.069C155.45 106.138 155.88 106.311 156.145 106.589C156.413 106.862 156.548 107.257 156.548 107.771C156.548 108.487 156.311 109.038 155.837 109.426C155.368 109.809 154.679 110 153.772 110H150.635V102.569H153.786C154.634 102.569 155.27 102.722 155.693 103.027C156.122 103.333 156.336 103.777 156.336 104.36ZM155.83 107.758C155.83 106.846 155.131 106.391 153.731 106.391H151.312V109.357H153.827C155.162 109.357 155.83 108.824 155.83 107.758ZM155.618 104.415C155.618 103.982 155.463 103.674 155.153 103.492C154.843 103.305 154.379 103.212 153.759 103.212H151.312V105.755H153.677C154.369 105.755 154.866 105.648 155.167 105.434C155.468 105.219 155.618 104.88 155.618 104.415ZM163.076 110L162.905 108.824H162.851C162.477 109.303 162.092 109.642 161.695 109.843C161.303 110.039 160.839 110.137 160.301 110.137C159.572 110.137 159.004 109.95 158.599 109.576C158.193 109.202 157.99 108.685 157.99 108.024C157.99 107.3 158.291 106.737 158.893 106.336C159.499 105.935 160.374 105.723 161.518 105.7L162.933 105.659V105.167C162.933 104.461 162.789 103.927 162.502 103.567C162.215 103.207 161.752 103.027 161.114 103.027C160.426 103.027 159.713 103.219 158.975 103.602L158.722 103.014C159.537 102.631 160.344 102.439 161.142 102.439C161.957 102.439 162.566 102.651 162.967 103.075C163.372 103.499 163.575 104.16 163.575 105.058V110H163.076ZM160.342 109.521C161.135 109.521 161.759 109.296 162.215 108.845C162.675 108.389 162.905 107.758 162.905 106.951V106.22L161.606 106.274C160.563 106.325 159.818 106.489 159.371 106.767C158.929 107.04 158.708 107.468 158.708 108.052C158.708 108.517 158.849 108.879 159.132 109.139C159.419 109.394 159.822 109.521 160.342 109.521ZM175.107 106.274C175.107 107.487 174.834 108.435 174.287 109.118C173.745 109.797 173 110.137 172.052 110.137C171.159 110.137 170.438 109.802 169.892 109.132C169.349 108.462 169.071 107.557 169.058 106.418H166.665V110H165.988V102.569H166.665V105.83H169.071C169.135 104.759 169.431 103.925 169.96 103.328C170.493 102.727 171.204 102.426 172.093 102.426C173.022 102.426 173.756 102.77 174.294 103.458C174.836 104.142 175.107 105.08 175.107 106.274ZM169.769 106.274C169.769 107.295 169.969 108.093 170.37 108.667C170.776 109.237 171.345 109.521 172.079 109.521C172.813 109.521 173.38 109.234 173.781 108.66C174.187 108.086 174.39 107.291 174.39 106.274C174.39 105.254 174.187 104.461 173.781 103.896C173.376 103.326 172.804 103.041 172.065 103.041C171.332 103.041 170.764 103.324 170.363 103.889C169.967 104.449 169.769 105.244 169.769 106.274ZM182.217 109.357H185.922V102.569H186.599V109.357H187.59V112.522H186.92V110H177.158V102.569H177.835V109.357H181.54V102.569H182.217V109.357ZM193.688 110L193.517 108.824H193.462C193.088 109.303 192.703 109.642 192.307 109.843C191.915 110.039 191.45 110.137 190.912 110.137C190.183 110.137 189.616 109.95 189.21 109.576C188.804 109.202 188.602 108.685 188.602 108.024C188.602 107.3 188.902 106.737 189.504 106.336C190.11 105.935 190.985 105.723 192.129 105.7L193.544 105.659V105.167C193.544 104.461 193.4 103.927 193.113 103.567C192.826 103.207 192.364 103.027 191.726 103.027C191.037 103.027 190.324 103.219 189.586 103.602L189.333 103.014C190.149 102.631 190.955 102.439 191.753 102.439C192.569 102.439 193.177 102.651 193.578 103.075C193.984 103.499 194.187 104.16 194.187 105.058V110H193.688ZM190.953 109.521C191.746 109.521 192.37 109.296 192.826 108.845C193.286 108.389 193.517 107.758 193.517 106.951V106.22L192.218 106.274C191.174 106.325 190.429 106.489 189.982 106.767C189.54 107.04 189.319 107.468 189.319 108.052C189.319 108.517 189.461 108.879 189.743 109.139C190.03 109.394 190.434 109.521 190.953 109.521ZM196.49 110H195.636L197.878 106.794C197.194 106.666 196.7 106.429 196.395 106.083C196.094 105.737 195.943 105.292 195.943 104.75C195.943 104.076 196.169 103.545 196.62 103.157C197.076 102.765 197.687 102.569 198.452 102.569H201.515V110H200.845V106.876H198.575L196.49 110ZM196.654 104.723C196.654 105.233 196.818 105.614 197.146 105.864C197.479 106.11 197.978 106.233 198.644 106.233H200.845V103.212H198.438C197.873 103.212 197.434 103.342 197.119 103.602C196.809 103.857 196.654 104.23 196.654 104.723ZM212.787 110H212.117V103.198H209.485C209.349 104.998 209.18 106.372 208.979 107.32C208.784 108.264 208.528 108.959 208.214 109.405C207.904 109.847 207.501 110.068 207.004 110.068C206.826 110.068 206.671 110.05 206.539 110.014V109.398C206.626 109.426 206.749 109.439 206.908 109.439C207.423 109.439 207.838 108.897 208.152 107.812C208.471 106.723 208.713 104.976 208.877 102.569H212.787V110ZM215.918 102.569V107.942L215.877 109.344L220.286 102.569H221.188V110H220.539V104.661L220.566 103.226L216.157 110H215.275V102.569H215.918ZM224.36 102.569V105.83H229.077V102.569H229.747V110H229.077V106.418H224.36V110H223.684V102.569H224.36ZM233.644 105.775C234.988 105.775 235.66 105.313 235.66 104.388C235.66 103.946 235.505 103.608 235.195 103.376C234.885 103.144 234.443 103.027 233.869 103.027C233.505 103.027 233.165 103.071 232.851 103.157C232.536 103.239 232.199 103.36 231.839 103.52L231.586 102.959C232.379 102.604 233.149 102.426 233.896 102.426C234.708 102.426 235.323 102.594 235.742 102.932C236.161 103.269 236.371 103.736 236.371 104.333C236.371 105.194 235.929 105.743 235.045 105.98V106.021C235.596 106.158 235.997 106.386 236.248 106.705C236.499 107.02 236.624 107.423 236.624 107.915C236.624 108.603 236.371 109.146 235.865 109.542C235.364 109.938 234.667 110.137 233.773 110.137C233.29 110.137 232.848 110.091 232.447 110C232.051 109.904 231.723 109.779 231.463 109.624V108.947C231.932 109.171 232.338 109.323 232.68 109.405C233.021 109.483 233.386 109.521 233.773 109.521C234.448 109.521 234.972 109.38 235.346 109.098C235.724 108.811 235.913 108.403 235.913 107.874C235.913 107.359 235.733 106.979 235.373 106.732C235.013 106.486 234.473 106.363 233.753 106.363H232.721V105.775H233.644ZM243.084 110L242.913 108.824H242.858C242.485 109.303 242.1 109.642 241.703 109.843C241.311 110.039 240.846 110.137 240.309 110.137C239.579 110.137 239.012 109.95 238.606 109.576C238.201 109.202 237.998 108.685 237.998 108.024C237.998 107.3 238.299 106.737 238.9 106.336C239.507 105.935 240.382 105.723 241.525 105.7L242.94 105.659V105.167C242.94 104.461 242.797 103.927 242.51 103.567C242.223 103.207 241.76 103.027 241.122 103.027C240.434 103.027 239.721 103.219 238.982 103.602L238.729 103.014C239.545 102.631 240.352 102.439 241.149 102.439C241.965 102.439 242.574 102.651 242.975 103.075C243.38 103.499 243.583 104.16 243.583 105.058V110H243.084ZM240.35 109.521C241.143 109.521 241.767 109.296 242.223 108.845C242.683 108.389 242.913 107.758 242.913 106.951V106.22L241.614 106.274C240.571 106.325 239.826 106.489 239.379 106.767C238.937 107.04 238.716 107.468 238.716 108.052C238.716 108.517 238.857 108.879 239.14 109.139C239.427 109.394 239.83 109.521 240.35 109.521ZM256.188 107.45H254.466V110H253.823V107.45H248.683V106.992L253.639 99.9512H254.466V106.862H256.188V107.45ZM253.823 106.862V104.005C253.823 102.629 253.855 101.473 253.919 100.539H253.864C253.773 100.708 253.493 101.136 253.023 101.824L249.496 106.862H253.823ZM263.599 104.976C263.599 106.73 263.33 108.029 262.792 108.872C262.259 109.715 261.45 110.137 260.365 110.137C259.322 110.137 258.529 109.704 257.986 108.838C257.444 107.967 257.173 106.68 257.173 104.976C257.173 103.235 257.435 101.945 257.959 101.106C258.488 100.268 259.29 99.8486 260.365 99.8486C261.418 99.8486 262.22 100.284 262.771 101.154C263.323 102.02 263.599 103.294 263.599 104.976ZM257.911 104.976C257.911 106.525 258.114 107.671 258.52 108.414C258.925 109.152 259.54 109.521 260.365 109.521C261.227 109.521 261.853 109.139 262.245 108.373C262.642 107.607 262.84 106.475 262.84 104.976C262.84 103.499 262.642 102.378 262.245 101.612C261.853 100.847 261.227 100.464 260.365 100.464C259.504 100.464 258.88 100.847 258.492 101.612C258.105 102.378 257.911 103.499 257.911 104.976ZM265.335 101.906C265.335 101.305 265.531 100.815 265.923 100.437C266.319 100.054 266.805 99.8623 267.379 99.8623C267.953 99.8623 268.436 100.054 268.828 100.437C269.225 100.815 269.423 101.305 269.423 101.906C269.423 102.508 269.225 103 268.828 103.383C268.436 103.761 267.953 103.95 267.379 103.95C266.786 103.95 266.297 103.761 265.909 103.383C265.526 103.005 265.335 102.512 265.335 101.906ZM265.95 101.906C265.95 102.321 266.089 102.672 266.367 102.959C266.645 103.246 266.982 103.39 267.379 103.39C267.771 103.39 268.106 103.248 268.384 102.966C268.666 102.683 268.808 102.33 268.808 101.906C268.808 101.487 268.671 101.136 268.397 100.854C268.124 100.566 267.785 100.423 267.379 100.423C266.969 100.423 266.627 100.569 266.354 100.86C266.085 101.152 265.95 101.501 265.95 101.906ZM28.5791 148H27.8818V138.662H22.1123V148H21.415V138.006H28.5791V148ZM37.3838 144.274C37.3838 145.487 37.0898 146.435 36.502 147.118C35.9141 147.797 35.1029 148.137 34.0684 148.137C33.4167 148.137 32.8424 147.979 32.3457 147.665C31.849 147.351 31.4684 146.899 31.2041 146.312C30.9398 145.724 30.8076 145.045 30.8076 144.274C30.8076 143.062 31.1016 142.119 31.6895 141.444C32.2773 140.765 33.084 140.426 34.1094 140.426C35.1302 140.426 35.93 140.77 36.5088 141.458C37.0921 142.142 37.3838 143.08 37.3838 144.274ZM31.5186 144.274C31.5186 145.295 31.7419 146.093 32.1885 146.667C32.6396 147.237 33.2754 147.521 34.0957 147.521C34.916 147.521 35.5495 147.237 35.9961 146.667C36.4473 146.093 36.6729 145.295 36.6729 144.274C36.6729 143.249 36.445 142.454 35.9893 141.889C35.5381 141.324 34.9023 141.041 34.082 141.041C33.2617 141.041 32.6283 141.324 32.1816 141.889C31.7396 142.449 31.5186 143.244 31.5186 144.274ZM44.1582 141.157H41.6836V148H41.0137V141.157H38.4775V140.569H44.1582V141.157ZM48.8682 148.137C47.7243 148.137 46.8903 147.708 46.3662 146.852H46.3184L46.3389 147.426C46.3571 147.763 46.3662 148.132 46.3662 148.533V151.363H45.6895V140.569H46.2637L46.3936 141.629H46.4346C46.945 140.827 47.7607 140.426 48.8818 140.426C49.8844 140.426 50.6478 140.756 51.1719 141.417C51.7005 142.073 51.9648 143.03 51.9648 144.288C51.9648 145.509 51.6868 146.457 51.1309 147.132C50.5794 147.802 49.8252 148.137 48.8682 148.137ZM48.8545 147.535C49.6156 147.535 50.2035 147.253 50.6182 146.688C51.0374 146.122 51.2471 145.332 51.2471 144.315C51.2471 142.132 50.4587 141.041 48.8818 141.041C48.016 141.041 47.3802 141.28 46.9746 141.759C46.569 142.233 46.3662 143.007 46.3662 144.083V144.302C46.3662 145.464 46.5599 146.293 46.9473 146.79C47.3392 147.287 47.9749 147.535 48.8545 147.535ZM57.0303 148.137C55.9502 148.137 55.1071 147.804 54.501 147.139C53.8994 146.473 53.5986 145.541 53.5986 144.343C53.5986 143.158 53.8903 142.21 54.4736 141.499C55.057 140.784 55.8431 140.426 56.832 140.426C57.707 140.426 58.3975 140.731 58.9033 141.342C59.4092 141.952 59.6621 142.782 59.6621 143.83V144.377H54.3096C54.3187 145.398 54.5557 146.177 55.0205 146.715C55.4899 147.253 56.1598 147.521 57.0303 147.521C57.4541 147.521 57.8255 147.492 58.1445 147.433C58.4681 147.373 58.876 147.246 59.3682 147.05V147.665C58.9489 147.847 58.5615 147.97 58.2061 148.034C57.8506 148.103 57.4587 148.137 57.0303 148.137ZM56.832 141.027C56.1165 141.027 55.5423 141.264 55.1094 141.738C54.6764 142.208 54.4235 142.887 54.3506 143.775H58.9443C58.9443 142.914 58.7575 142.242 58.3838 141.759C58.0101 141.271 57.4928 141.027 56.832 141.027ZM61.3096 143.536C61.3096 140.31 62.2188 138.471 64.0371 138.02C64.6751 137.86 65.2858 137.726 65.8691 137.616C66.457 137.502 66.9766 137.402 67.4277 137.315L67.5508 137.903L66.7305 138.061C65.377 138.316 64.4837 138.512 64.0508 138.648C63.4355 138.826 62.9525 139.252 62.6016 139.927C62.2552 140.601 62.057 141.524 62.0068 142.695H62.0479C62.5355 142.117 63.0094 141.704 63.4697 141.458C63.93 141.207 64.404 141.082 64.8916 141.082C65.8031 141.082 66.5003 141.376 66.9834 141.964C67.4665 142.552 67.708 143.388 67.708 144.473C67.708 145.626 67.43 146.526 66.874 147.173C66.318 147.815 65.5365 148.137 64.5293 148.137C63.5085 148.137 62.7155 147.738 62.1504 146.94C61.5898 146.143 61.3096 145.008 61.3096 143.536ZM64.584 147.521C65.3633 147.521 65.958 147.262 66.3682 146.742C66.7829 146.223 66.9902 145.475 66.9902 144.5C66.9902 143.575 66.8057 142.878 66.4365 142.408C66.0719 141.934 65.5342 141.697 64.8232 141.697C64.2946 141.697 63.7819 141.864 63.2852 142.196C62.793 142.524 62.3623 142.98 61.9932 143.563C61.9932 144.379 62.0934 145.095 62.2939 145.71C62.499 146.325 62.7952 146.781 63.1826 147.077C63.57 147.373 64.0371 147.521 64.584 147.521ZM74.8926 148H74.2227V141.198H71.5908C71.4541 142.998 71.2855 144.372 71.085 145.32C70.889 146.264 70.6338 146.959 70.3193 147.405C70.0094 147.847 69.6061 148.068 69.1094 148.068C68.9316 148.068 68.7767 148.05 68.6445 148.014V147.398C68.7311 147.426 68.8542 147.439 69.0137 147.439C69.5286 147.439 69.9434 146.897 70.2578 145.812C70.5768 144.723 70.8184 142.976 70.9824 140.569H74.8926V148ZM77.2715 148H76.417L78.6592 144.794C77.9756 144.666 77.4811 144.429 77.1758 144.083C76.875 143.737 76.7246 143.292 76.7246 142.75C76.7246 142.076 76.9502 141.545 77.4014 141.157C77.8571 140.765 78.4678 140.569 79.2334 140.569H82.2959V148H81.626V144.876H79.3564L77.2715 148ZM77.4355 142.723C77.4355 143.233 77.5996 143.614 77.9277 143.864C78.2604 144.11 78.7594 144.233 79.4248 144.233H81.626V141.212H79.2197C78.6546 141.212 78.2148 141.342 77.9004 141.602C77.5905 141.857 77.4355 142.23 77.4355 142.723ZM87.792 148.137C86.7119 148.137 85.8688 147.804 85.2627 147.139C84.6611 146.473 84.3604 145.541 84.3604 144.343C84.3604 143.158 84.652 142.21 85.2354 141.499C85.8187 140.784 86.6048 140.426 87.5938 140.426C88.4688 140.426 89.1592 140.731 89.665 141.342C90.1709 141.952 90.4238 142.782 90.4238 143.83V144.377H85.0713C85.0804 145.398 85.3174 146.177 85.7822 146.715C86.2516 147.253 86.9215 147.521 87.792 147.521C88.2158 147.521 88.5872 147.492 88.9062 147.433C89.2298 147.373 89.6377 147.246 90.1299 147.05V147.665C89.7106 147.847 89.3232 147.97 88.9678 148.034C88.6123 148.103 88.2204 148.137 87.792 148.137ZM87.5938 141.027C86.8783 141.027 86.304 141.264 85.8711 141.738C85.4382 142.208 85.1852 142.887 85.1123 143.775H89.7061C89.7061 142.914 89.5192 142.242 89.1455 141.759C88.7718 141.271 88.2546 141.027 87.5938 141.027ZM95.9336 147.275L96.3574 146.079L98.4971 140.569H99.4336V148H98.791V141.39C98.6908 141.677 98.5837 141.971 98.4697 142.271C98.3604 142.572 97.6175 144.482 96.2412 148H95.6396L93.582 142.777C93.4954 142.568 93.4134 142.347 93.3359 142.114C93.263 141.882 93.181 141.631 93.0898 141.362V148H92.4746V140.569H93.3701L95.5166 146.038C95.6852 146.48 95.8242 146.893 95.9336 147.275ZM106.434 148L106.263 146.824H106.208C105.834 147.303 105.449 147.642 105.053 147.843C104.661 148.039 104.196 148.137 103.658 148.137C102.929 148.137 102.362 147.95 101.956 147.576C101.55 147.202 101.348 146.685 101.348 146.024C101.348 145.3 101.648 144.737 102.25 144.336C102.856 143.935 103.731 143.723 104.875 143.7L106.29 143.659V143.167C106.29 142.461 106.146 141.927 105.859 141.567C105.572 141.207 105.11 141.027 104.472 141.027C103.784 141.027 103.07 141.219 102.332 141.602L102.079 141.014C102.895 140.631 103.701 140.439 104.499 140.439C105.315 140.439 105.923 140.651 106.324 141.075C106.73 141.499 106.933 142.16 106.933 143.058V148H106.434ZM103.699 147.521C104.492 147.521 105.117 147.296 105.572 146.845C106.033 146.389 106.263 145.758 106.263 144.951V144.22L104.964 144.274C103.92 144.325 103.175 144.489 102.729 144.767C102.286 145.04 102.065 145.468 102.065 146.052C102.065 146.517 102.207 146.879 102.489 147.139C102.776 147.394 103.18 147.521 103.699 147.521ZM109.236 148H108.382L110.624 144.794C109.94 144.666 109.446 144.429 109.141 144.083C108.84 143.737 108.689 143.292 108.689 142.75C108.689 142.076 108.915 141.545 109.366 141.157C109.822 140.765 110.433 140.569 111.198 140.569H114.261V148H113.591V144.876H111.321L109.236 148ZM109.4 142.723C109.4 143.233 109.564 143.614 109.893 143.864C110.225 144.11 110.724 144.233 111.39 144.233H113.591V141.212H111.185C110.619 141.212 110.18 141.342 109.865 141.602C109.555 141.857 109.4 142.23 109.4 142.723ZM123.852 147.275L124.275 146.079L126.415 140.569H127.352V148H126.709V141.39C126.609 141.677 126.502 141.971 126.388 142.271C126.278 142.572 125.535 144.482 124.159 148H123.558L121.5 142.777C121.413 142.568 121.331 142.347 121.254 142.114C121.181 141.882 121.099 141.631 121.008 141.362V148H120.393V140.569H121.288L123.435 146.038C123.603 146.48 123.742 146.893 123.852 147.275ZM135.985 144.274C135.985 145.487 135.691 146.435 135.104 147.118C134.516 147.797 133.704 148.137 132.67 148.137C132.018 148.137 131.444 147.979 130.947 147.665C130.451 147.351 130.07 146.899 129.806 146.312C129.541 145.724 129.409 145.045 129.409 144.274C129.409 143.062 129.703 142.119 130.291 141.444C130.879 140.765 131.686 140.426 132.711 140.426C133.732 140.426 134.532 140.77 135.11 141.458C135.694 142.142 135.985 143.08 135.985 144.274ZM130.12 144.274C130.12 145.295 130.343 146.093 130.79 146.667C131.241 147.237 131.877 147.521 132.697 147.521C133.518 147.521 134.151 147.237 134.598 146.667C135.049 146.093 135.274 145.295 135.274 144.274C135.274 143.249 135.047 142.454 134.591 141.889C134.14 141.324 133.504 141.041 132.684 141.041C131.863 141.041 131.23 141.324 130.783 141.889C130.341 142.449 130.12 143.244 130.12 144.274ZM143.102 147.357H146.807V140.569H147.483V147.357H148.475V150.522H147.805V148H138.043V140.569H138.72V147.357H142.425V140.569H143.102V147.357ZM150.737 140.569V143.83H155.454V140.569H156.124V148H155.454V144.418H150.737V148H150.061V140.569H150.737ZM164.765 144.274C164.765 145.487 164.471 146.435 163.883 147.118C163.295 147.797 162.484 148.137 161.449 148.137C160.798 148.137 160.223 147.979 159.727 147.665C159.23 147.351 158.849 146.899 158.585 146.312C158.321 145.724 158.188 145.045 158.188 144.274C158.188 143.062 158.482 142.119 159.07 141.444C159.658 140.765 160.465 140.426 161.49 140.426C162.511 140.426 163.311 140.77 163.89 141.458C164.473 142.142 164.765 143.08 164.765 144.274ZM158.899 144.274C158.899 145.295 159.123 146.093 159.569 146.667C160.021 147.237 160.656 147.521 161.477 147.521C162.297 147.521 162.93 147.237 163.377 146.667C163.828 146.093 164.054 145.295 164.054 144.274C164.054 143.249 163.826 142.454 163.37 141.889C162.919 141.324 162.283 141.041 161.463 141.041C160.643 141.041 160.009 141.324 159.562 141.889C159.12 142.449 158.899 143.244 158.899 144.274ZM169.789 148.137C168.727 148.137 167.896 147.802 167.294 147.132C166.692 146.462 166.392 145.528 166.392 144.329C166.392 143.099 166.704 142.142 167.328 141.458C167.952 140.77 168.807 140.426 169.892 140.426C170.534 140.426 171.149 140.537 171.737 140.761L171.553 141.362C170.91 141.148 170.352 141.041 169.878 141.041C168.966 141.041 168.276 141.324 167.807 141.889C167.337 142.449 167.103 143.258 167.103 144.315C167.103 145.318 167.337 146.104 167.807 146.674C168.276 147.239 168.932 147.521 169.775 147.521C170.45 147.521 171.076 147.401 171.655 147.159V147.788C171.181 148.021 170.559 148.137 169.789 148.137ZM178.197 141.157H175.723V148H175.053V141.157H172.517V140.569H178.197V141.157ZM180.405 143.7H183.023C184.769 143.7 185.642 144.386 185.642 145.758C185.642 146.464 185.398 147.016 184.91 147.412C184.423 147.804 183.723 148 182.812 148H179.729V140.569H180.405V143.7ZM180.405 144.343V147.357H182.921C183.568 147.357 184.062 147.221 184.404 146.947C184.751 146.674 184.924 146.273 184.924 145.744C184.924 145.252 184.771 144.896 184.466 144.678C184.16 144.454 183.632 144.343 182.88 144.343H180.405ZM197.119 148H190.864V147.398L193.523 144.623C194.271 143.848 194.795 143.256 195.096 142.846C195.396 142.436 195.618 142.044 195.759 141.67C195.9 141.296 195.971 140.904 195.971 140.494C195.971 139.897 195.775 139.412 195.383 139.038C194.991 138.664 194.483 138.478 193.858 138.478C193.024 138.478 192.227 138.781 191.466 139.387L191.097 138.915C191.931 138.213 192.856 137.862 193.872 137.862C194.743 137.862 195.426 138.095 195.923 138.56C196.424 139.024 196.675 139.665 196.675 140.48C196.675 141.141 196.506 141.782 196.169 142.401C195.836 143.017 195.226 143.778 194.337 144.685L191.773 147.316V147.344H197.119V148ZM205.302 142.976C205.302 144.73 205.033 146.029 204.495 146.872C203.962 147.715 203.153 148.137 202.068 148.137C201.025 148.137 200.232 147.704 199.689 146.838C199.147 145.967 198.876 144.68 198.876 142.976C198.876 141.235 199.138 139.945 199.662 139.106C200.191 138.268 200.993 137.849 202.068 137.849C203.121 137.849 203.923 138.284 204.475 139.154C205.026 140.02 205.302 141.294 205.302 142.976ZM199.614 142.976C199.614 144.525 199.817 145.671 200.223 146.414C200.628 147.152 201.243 147.521 202.068 147.521C202.93 147.521 203.556 147.139 203.948 146.373C204.345 145.607 204.543 144.475 204.543 142.976C204.543 141.499 204.345 140.378 203.948 139.612C203.556 138.847 202.93 138.464 202.068 138.464C201.207 138.464 200.583 138.847 200.195 139.612C199.808 140.378 199.614 141.499 199.614 142.976ZM213.3 142.976C213.3 144.73 213.031 146.029 212.493 146.872C211.96 147.715 211.151 148.137 210.066 148.137C209.023 148.137 208.23 147.704 207.688 146.838C207.145 145.967 206.874 144.68 206.874 142.976C206.874 141.235 207.136 139.945 207.66 139.106C208.189 138.268 208.991 137.849 210.066 137.849C211.119 137.849 211.921 138.284 212.473 139.154C213.024 140.02 213.3 141.294 213.3 142.976ZM207.612 142.976C207.612 144.525 207.815 145.671 208.221 146.414C208.626 147.152 209.242 147.521 210.066 147.521C210.928 147.521 211.554 147.139 211.946 146.373C212.343 145.607 212.541 144.475 212.541 142.976C212.541 141.499 212.343 140.378 211.946 139.612C211.554 138.847 210.928 138.464 210.066 138.464C209.205 138.464 208.581 138.847 208.193 139.612C207.806 140.378 207.612 141.499 207.612 142.976ZM219.138 138.006H221.879C223.114 138.006 224.021 138.215 224.6 138.635C225.178 139.054 225.468 139.688 225.468 140.535C225.468 141.114 225.29 141.597 224.935 141.984C224.584 142.367 224.069 142.613 223.39 142.723V142.764C224.187 142.882 224.773 143.135 225.146 143.522C225.525 143.905 225.714 144.441 225.714 145.129C225.714 146.049 225.409 146.758 224.798 147.255C224.187 147.752 223.321 148 222.2 148H219.138V138.006ZM219.835 142.456H222.036C222.975 142.456 223.656 142.301 224.08 141.991C224.508 141.677 224.723 141.187 224.723 140.521C224.723 139.856 224.481 139.373 223.998 139.072C223.52 138.771 222.804 138.621 221.852 138.621H219.835V142.456ZM219.835 143.071V147.385H222.187C224.037 147.385 224.962 146.633 224.962 145.129C224.962 143.757 223.987 143.071 222.036 143.071H219.835ZM232.461 141.157H229.986V148H229.316V141.157H226.78V140.569H232.461V141.157Z" fill="#343434"/>
<circle cx="2" cy="20" r="2" fill="#343434"/>
<circle cx="2" cy="67" r="2" fill="#343434"/>
<circle cx="2" cy="105" r="2" fill="#343434"/>
<circle cx="2" cy="143" r="2" fill="#343434"/>
</svg>
