<svg width="254" height="148" viewBox="0 0 254 148" fill="none" xmlns="http://www.w3.org/2000/svg">
<path d="M1.41504 1.00586H2.08496V7.54102C2.08496 8.00586 2.06673 8.78516 2.03027 9.87891H2.07129L7.97754 1.00586H8.68164V11H8.00488V4.50586C8.00488 3.76758 8.03451 2.97005 8.09375 2.11328H8.03906L2.1123 11H1.41504V1.00586ZM14.3145 11.1367C13.2526 11.1367 12.4209 10.8018 11.8193 10.1318C11.2178 9.46191 10.917 8.52767 10.917 7.3291C10.917 6.09863 11.2292 5.1416 11.8535 4.45801C12.4779 3.76986 13.3324 3.42578 14.417 3.42578C15.0596 3.42578 15.6748 3.53743 16.2627 3.76074L16.0781 4.3623C15.4355 4.14811 14.8773 4.04102 14.4033 4.04102C13.4919 4.04102 12.8014 4.32357 12.332 4.88867C11.8626 5.44922 11.6279 6.25814 11.6279 7.31543C11.6279 8.31803 11.8626 9.10417 12.332 9.67383C12.8014 10.2389 13.4577 10.5215 14.3008 10.5215C14.9753 10.5215 15.6019 10.4007 16.1807 10.1592V10.7881C15.7067 11.0205 15.0846 11.1367 14.3145 11.1367ZM22.7227 4.15723H20.248V11H19.5781V4.15723H17.042V3.56934H22.7227V4.15723ZM30.3994 7.27441C30.3994 8.48665 30.1055 9.43457 29.5176 10.1182C28.9297 10.7972 28.1185 11.1367 27.084 11.1367C26.4323 11.1367 25.8581 10.9795 25.3613 10.665C24.8646 10.3506 24.484 9.89941 24.2197 9.31152C23.9554 8.72363 23.8232 8.0446 23.8232 7.27441C23.8232 6.06217 24.1172 5.11882 24.7051 4.44434C25.293 3.7653 26.0996 3.42578 27.125 3.42578C28.1458 3.42578 28.9456 3.76986 29.5244 4.45801C30.1077 5.1416 30.3994 6.0804 30.3994 7.27441ZM24.5342 7.27441C24.5342 8.29525 24.7575 9.09277 25.2041 9.66699C25.6553 10.2367 26.291 10.5215 27.1113 10.5215C27.9316 10.5215 28.5651 10.2367 29.0117 9.66699C29.4629 9.09277 29.6885 8.29525 29.6885 7.27441C29.6885 6.24902 29.4606 5.45378 29.0049 4.88867C28.5537 4.32357 27.918 4.04102 27.0977 4.04102C26.2773 4.04102 25.6439 4.32357 25.1973 4.88867C24.7552 5.44922 24.5342 6.24447 24.5342 7.27441ZM33.0039 3.56934V6.05762C33.0039 6.68652 33.1566 7.13997 33.4619 7.41797C33.7673 7.69596 34.2367 7.83496 34.8701 7.83496C35.3167 7.83496 35.7428 7.75521 36.1484 7.5957C36.554 7.4362 36.9756 7.18099 37.4131 6.83008V3.56934H38.0898V11H37.4131V7.47266C36.9574 7.82357 36.5085 8.07422 36.0664 8.22461C35.6289 8.375 35.1549 8.4502 34.6445 8.4502C33.8835 8.4502 33.307 8.25195 32.915 7.85547C32.5277 7.45898 32.334 6.88704 32.334 6.13965V3.56934H33.0039ZM41.2549 3.56934V6.83008H45.9717V3.56934H46.6416V11H45.9717V7.41797H41.2549V11H40.5781V3.56934H41.2549ZM49.7793 3.56934V8.94238L49.7383 10.3438L54.1475 3.56934H55.0498V11H54.4004V5.66113L54.4277 4.22559L50.0186 11H49.1367V3.56934H49.7793ZM61.5781 3.56934H62.4189L59.0898 7.16504L62.6582 11H61.749L58.2354 7.2334V11H57.5449V3.56934H58.2354V7.17871L61.5781 3.56934ZM70.5742 11.1367C69.5124 11.1367 68.6807 10.8018 68.0791 10.1318C67.4775 9.46191 67.1768 8.52767 67.1768 7.3291C67.1768 6.09863 67.4889 5.1416 68.1133 4.45801C68.7376 3.76986 69.5921 3.42578 70.6768 3.42578C71.3193 3.42578 71.9346 3.53743 72.5225 3.76074L72.3379 4.3623C71.6953 4.14811 71.137 4.04102 70.6631 4.04102C69.7516 4.04102 69.0612 4.32357 68.5918 4.88867C68.1224 5.44922 67.8877 6.25814 67.8877 7.31543C67.8877 8.31803 68.1224 9.10417 68.5918 9.67383C69.0612 10.2389 69.7174 10.5215 70.5605 10.5215C71.235 10.5215 71.8617 10.4007 72.4404 10.1592V10.7881C71.9665 11.0205 71.3444 11.1367 70.5742 11.1367ZM79.9668 5.36035C79.9668 5.82975 79.8506 6.19889 79.6182 6.46777C79.3857 6.7321 79.0075 6.91667 78.4834 7.02148V7.06934C79.0804 7.1377 79.5111 7.31087 79.7754 7.58887C80.0443 7.8623 80.1787 8.25651 80.1787 8.77148C80.1787 9.48698 79.9417 10.0384 79.4678 10.4258C78.9984 10.8086 78.3102 11 77.4033 11H74.2656V3.56934H77.417C78.2646 3.56934 78.9004 3.72201 79.3242 4.02734C79.7526 4.33268 79.9668 4.77702 79.9668 5.36035ZM79.4609 8.75781C79.4609 7.84635 78.7614 7.39062 77.3623 7.39062H74.9424V10.3574H77.458C78.7933 10.3574 79.4609 9.82422 79.4609 8.75781ZM79.249 5.41504C79.249 4.9821 79.0941 4.67448 78.7842 4.49219C78.4743 4.30534 78.0094 4.21191 77.3896 4.21191H74.9424V6.75488H77.3076C78.0003 6.75488 78.4971 6.64779 78.7979 6.43359C79.0986 6.2194 79.249 5.87988 79.249 5.41504ZM85.1963 11.1367C84.1162 11.1367 83.2731 10.804 82.667 10.1387C82.0654 9.47331 81.7646 8.54134 81.7646 7.34277C81.7646 6.15788 82.0563 5.20996 82.6396 4.49902C83.223 3.78353 84.0091 3.42578 84.998 3.42578C85.873 3.42578 86.5635 3.73112 87.0693 4.3418C87.5752 4.95247 87.8281 5.7819 87.8281 6.83008V7.37695H82.4756C82.4847 8.39779 82.7217 9.17708 83.1865 9.71484C83.6559 10.2526 84.3258 10.5215 85.1963 10.5215C85.6201 10.5215 85.9915 10.4919 86.3105 10.4326C86.6341 10.3734 87.042 10.2458 87.5342 10.0498V10.665C87.1149 10.8473 86.7275 10.9704 86.3721 11.0342C86.0166 11.1025 85.6247 11.1367 85.1963 11.1367ZM84.998 4.02734C84.2826 4.02734 83.7083 4.26432 83.2754 4.73828C82.8424 5.20768 82.5895 5.88672 82.5166 6.77539H87.1104C87.1104 5.91406 86.9235 5.24186 86.5498 4.75879C86.1761 4.27116 85.6589 4.02734 84.998 4.02734ZM94.5957 4.15723H92.1211V11H91.4512V4.15723H88.915V3.56934H94.5957V4.15723ZM100.639 11L100.468 9.82422H100.413C100.039 10.3027 99.6543 10.6423 99.2578 10.8428C98.8659 11.0387 98.401 11.1367 97.8633 11.1367C97.1341 11.1367 96.5667 10.9499 96.1611 10.5762C95.7555 10.2025 95.5527 9.68522 95.5527 9.02441C95.5527 8.2998 95.8535 7.73698 96.4551 7.33594C97.0612 6.9349 97.9362 6.72298 99.0801 6.7002L100.495 6.65918V6.16699C100.495 5.46061 100.352 4.92741 100.064 4.56738C99.7773 4.20736 99.3148 4.02734 98.6768 4.02734C97.9886 4.02734 97.2754 4.21875 96.5371 4.60156L96.2842 4.01367C97.0999 3.63086 97.9066 3.43945 98.7041 3.43945C99.5199 3.43945 100.128 3.65137 100.529 4.0752C100.935 4.49902 101.138 5.15983 101.138 6.05762V11H100.639ZM97.9043 10.5215C98.6973 10.5215 99.3216 10.2959 99.7773 9.84473C100.238 9.389 100.468 8.75781 100.468 7.95117V7.21973L99.1689 7.27441C98.1253 7.32454 97.3802 7.48861 96.9336 7.7666C96.4915 8.04004 96.2705 8.46842 96.2705 9.05176C96.2705 9.5166 96.4118 9.87891 96.6943 10.1387C96.9814 10.3939 97.3848 10.5215 97.9043 10.5215ZM110.605 11H109.936V3.71973C109.936 3.05892 109.963 2.37305 110.018 1.66211C109.949 1.73047 109.879 1.79655 109.806 1.86035C109.733 1.92415 109.029 2.47786 107.693 3.52148L107.304 3.03613L110.018 1.00586H110.605V11ZM120.969 11H114.714V10.3984L117.373 7.62305C118.12 6.84831 118.645 6.25586 118.945 5.8457C119.246 5.43555 119.467 5.04362 119.608 4.66992C119.75 4.29622 119.82 3.9043 119.82 3.49414C119.82 2.89714 119.624 2.41178 119.232 2.03809C118.84 1.66439 118.332 1.47754 117.708 1.47754C116.874 1.47754 116.076 1.7806 115.315 2.38672L114.946 1.91504C115.78 1.21322 116.705 0.862305 117.722 0.862305C118.592 0.862305 119.276 1.09473 119.772 1.55957C120.274 2.02441 120.524 2.66471 120.524 3.48047C120.524 4.14128 120.356 4.78158 120.019 5.40137C119.686 6.0166 119.075 6.77767 118.187 7.68457L115.623 10.3164V10.3438H120.969V11ZM129.787 11.1367C128.725 11.1367 127.894 10.8018 127.292 10.1318C126.69 9.46191 126.39 8.52767 126.39 7.3291C126.39 6.09863 126.702 5.1416 127.326 4.45801C127.951 3.76986 128.805 3.42578 129.89 3.42578C130.532 3.42578 131.147 3.53743 131.735 3.76074L131.551 4.3623C130.908 4.14811 130.35 4.04102 129.876 4.04102C128.965 4.04102 128.274 4.32357 127.805 4.88867C127.335 5.44922 127.101 6.25814 127.101 7.31543C127.101 8.31803 127.335 9.10417 127.805 9.67383C128.274 10.2389 128.93 10.5215 129.773 10.5215C130.448 10.5215 131.075 10.4007 131.653 10.1592V10.7881C131.179 11.0205 130.557 11.1367 129.787 11.1367ZM139.18 5.36035C139.18 5.82975 139.063 6.19889 138.831 6.46777C138.599 6.7321 138.22 6.91667 137.696 7.02148V7.06934C138.293 7.1377 138.724 7.31087 138.988 7.58887C139.257 7.8623 139.392 8.25651 139.392 8.77148C139.392 9.48698 139.155 10.0384 138.681 10.4258C138.211 10.8086 137.523 11 136.616 11H133.479V3.56934H136.63C137.478 3.56934 138.113 3.72201 138.537 4.02734C138.965 4.33268 139.18 4.77702 139.18 5.36035ZM138.674 8.75781C138.674 7.84635 137.974 7.39062 136.575 7.39062H134.155V10.3574H136.671C138.006 10.3574 138.674 9.82422 138.674 8.75781ZM138.462 5.41504C138.462 4.9821 138.307 4.67448 137.997 4.49219C137.687 4.30534 137.222 4.21191 136.603 4.21191H134.155V6.75488H136.521C137.213 6.75488 137.71 6.64779 138.011 6.43359C138.312 6.2194 138.462 5.87988 138.462 5.41504ZM144.409 11.1367C143.329 11.1367 142.486 10.804 141.88 10.1387C141.278 9.47331 140.978 8.54134 140.978 7.34277C140.978 6.15788 141.269 5.20996 141.853 4.49902C142.436 3.78353 143.222 3.42578 144.211 3.42578C145.086 3.42578 145.776 3.73112 146.282 4.3418C146.788 4.95247 147.041 5.7819 147.041 6.83008V7.37695H141.688C141.698 8.39779 141.935 9.17708 142.399 9.71484C142.869 10.2526 143.539 10.5215 144.409 10.5215C144.833 10.5215 145.204 10.4919 145.523 10.4326C145.847 10.3734 146.255 10.2458 146.747 10.0498V10.665C146.328 10.8473 145.94 10.9704 145.585 11.0342C145.229 11.1025 144.838 11.1367 144.409 11.1367ZM144.211 4.02734C143.495 4.02734 142.921 4.26432 142.488 4.73828C142.055 5.20768 141.802 5.88672 141.729 6.77539H146.323C146.323 5.91406 146.136 5.24186 145.763 4.75879C145.389 4.27116 144.872 4.02734 144.211 4.02734ZM153.809 4.15723H151.334V11H150.664V4.15723H148.128V3.56934H153.809V4.15723ZM161.485 7.27441C161.485 8.48665 161.191 9.43457 160.604 10.1182C160.016 10.7972 159.204 11.1367 158.17 11.1367C157.518 11.1367 156.944 10.9795 156.447 10.665C155.951 10.3506 155.57 9.89941 155.306 9.31152C155.041 8.72363 154.909 8.0446 154.909 7.27441C154.909 6.06217 155.203 5.11882 155.791 4.44434C156.379 3.7653 157.186 3.42578 158.211 3.42578C159.232 3.42578 160.032 3.76986 160.61 4.45801C161.194 5.1416 161.485 6.0804 161.485 7.27441ZM155.62 7.27441C155.62 8.29525 155.843 9.09277 156.29 9.66699C156.741 10.2367 157.377 10.5215 158.197 10.5215C159.018 10.5215 159.651 10.2367 160.098 9.66699C160.549 9.09277 160.774 8.29525 160.774 7.27441C160.774 6.24902 160.547 5.45378 160.091 4.88867C159.64 4.32357 159.004 4.04102 158.184 4.04102C157.363 4.04102 156.73 4.32357 156.283 4.88867C155.841 5.44922 155.62 6.24447 155.62 7.27441ZM169.606 13.5225H168.937V11H163.249V13.5225H162.579V10.3574H163.071C163.691 9.48698 164.17 8.47754 164.507 7.3291C164.844 6.18066 165.022 4.92741 165.04 3.56934H168.615V10.3574H169.606V13.5225ZM167.938 10.3574V4.19824H165.628C165.519 6.66374 164.922 8.7168 163.837 10.3574H167.938ZM171.828 3.56934V8.94238L171.787 10.3438L176.196 3.56934H177.099V11H176.449V5.66113L176.477 4.22559L172.067 11H171.186V3.56934H171.828ZM185.739 7.27441C185.739 8.48665 185.445 9.43457 184.857 10.1182C184.27 10.7972 183.458 11.1367 182.424 11.1367C181.772 11.1367 181.198 10.9795 180.701 10.665C180.204 10.3506 179.824 9.89941 179.56 9.31152C179.295 8.72363 179.163 8.0446 179.163 7.27441C179.163 6.06217 179.457 5.11882 180.045 4.44434C180.633 3.7653 181.439 3.42578 182.465 3.42578C183.486 3.42578 184.285 3.76986 184.864 4.45801C185.448 5.1416 185.739 6.0804 185.739 7.27441ZM179.874 7.27441C179.874 8.29525 180.097 9.09277 180.544 9.66699C180.995 10.2367 181.631 10.5215 182.451 10.5215C183.271 10.5215 183.905 10.2367 184.352 9.66699C184.803 9.09277 185.028 8.29525 185.028 7.27441C185.028 6.24902 184.8 5.45378 184.345 4.88867C183.894 4.32357 183.258 4.04102 182.438 4.04102C181.617 4.04102 180.984 4.32357 180.537 4.88867C180.095 5.44922 179.874 6.24447 179.874 7.27441ZM193.86 13.5225H193.19V11H187.503V13.5225H186.833V10.3574H187.325C187.945 9.48698 188.424 8.47754 188.761 7.3291C189.098 6.18066 189.276 4.92741 189.294 3.56934H192.869V10.3574H193.86V13.5225ZM192.192 10.3574V4.19824H189.882C189.772 6.66374 189.175 8.7168 188.091 10.3574H192.192ZM201.585 7.27441C201.585 8.48665 201.291 9.43457 200.703 10.1182C200.115 10.7972 199.304 11.1367 198.27 11.1367C197.618 11.1367 197.044 10.9795 196.547 10.665C196.05 10.3506 195.67 9.89941 195.405 9.31152C195.141 8.72363 195.009 8.0446 195.009 7.27441C195.009 6.06217 195.303 5.11882 195.891 4.44434C196.479 3.7653 197.285 3.42578 198.311 3.42578C199.331 3.42578 200.131 3.76986 200.71 4.45801C201.293 5.1416 201.585 6.0804 201.585 7.27441ZM195.72 7.27441C195.72 8.29525 195.943 9.09277 196.39 9.66699C196.841 10.2367 197.477 10.5215 198.297 10.5215C199.117 10.5215 199.751 10.2367 200.197 9.66699C200.648 9.09277 200.874 8.29525 200.874 7.27441C200.874 6.24902 200.646 5.45378 200.19 4.88867C199.739 4.32357 199.104 4.04102 198.283 4.04102C197.463 4.04102 196.829 4.32357 196.383 4.88867C195.941 5.44922 195.72 6.24447 195.72 7.27441ZM209.344 5.36035C209.344 5.82975 209.228 6.19889 208.995 6.46777C208.763 6.7321 208.384 6.91667 207.86 7.02148V7.06934C208.457 7.1377 208.888 7.31087 209.152 7.58887C209.421 7.8623 209.556 8.25651 209.556 8.77148C209.556 9.48698 209.319 10.0384 208.845 10.4258C208.375 10.8086 207.687 11 206.78 11H203.643V3.56934H206.794C207.642 3.56934 208.277 3.72201 208.701 4.02734C209.13 4.33268 209.344 4.77702 209.344 5.36035ZM208.838 8.75781C208.838 7.84635 208.138 7.39062 206.739 7.39062H204.319V10.3574H206.835C208.17 10.3574 208.838 9.82422 208.838 8.75781ZM208.626 5.41504C208.626 4.9821 208.471 4.67448 208.161 4.49219C207.851 4.30534 207.386 4.21191 206.767 4.21191H204.319V6.75488H206.685C207.377 6.75488 207.874 6.64779 208.175 6.43359C208.476 6.2194 208.626 5.87988 208.626 5.41504ZM216.077 6.64551V11H215.38V1.00586H217.759C218.998 1.00586 219.914 1.236 220.507 1.69629C221.099 2.15202 221.396 2.84017 221.396 3.76074C221.396 4.43066 221.218 4.99577 220.862 5.45605C220.511 5.91634 219.976 6.24674 219.256 6.44727L221.97 11H221.136L218.559 6.64551H216.077ZM216.077 6.04395H217.984C218.827 6.04395 219.481 5.8571 219.946 5.4834C220.411 5.10514 220.644 4.54915 220.644 3.81543C220.644 3.05436 220.416 2.50065 219.96 2.1543C219.504 1.80794 218.761 1.63477 217.731 1.63477H216.077V6.04395ZM227.637 5.96191H231.321V10.5215C230.355 10.9316 229.268 11.1367 228.061 11.1367C226.484 11.1367 225.274 10.6924 224.431 9.80371C223.592 8.91048 223.173 7.64811 223.173 6.0166C223.173 5.00033 223.38 4.10026 223.795 3.31641C224.214 2.52799 224.811 1.9196 225.586 1.49121C226.365 1.06283 227.258 0.848633 228.266 0.848633C229.355 0.848633 230.332 1.04915 231.198 1.4502L230.918 2.0791C230.052 1.67806 229.154 1.47754 228.225 1.47754C226.908 1.47754 225.862 1.88542 225.087 2.70117C224.317 3.51237 223.932 4.6084 223.932 5.98926C223.932 7.49316 224.299 8.62565 225.032 9.38672C225.766 10.1432 226.844 10.5215 228.266 10.5215C229.186 10.5215 229.968 10.3916 230.61 10.1318V6.61816H227.637V5.96191ZM233.837 1.00586H236.578C237.813 1.00586 238.72 1.21549 239.299 1.63477C239.878 2.05404 240.167 2.6875 240.167 3.53516C240.167 4.11393 239.989 4.59701 239.634 4.98438C239.283 5.36719 238.768 5.61328 238.089 5.72266V5.76367C238.886 5.88216 239.472 6.13509 239.846 6.52246C240.224 6.90527 240.413 7.44076 240.413 8.12891C240.413 9.04948 240.108 9.75814 239.497 10.2549C238.886 10.7516 238.021 11 236.899 11H233.837V1.00586ZM234.534 5.45605H236.735C237.674 5.45605 238.355 5.30111 238.779 4.99121C239.208 4.67676 239.422 4.18685 239.422 3.52148C239.422 2.85612 239.18 2.37305 238.697 2.07227C238.219 1.77148 237.503 1.62109 236.551 1.62109H234.534V5.45605ZM234.534 6.07129V10.3848H236.886C238.736 10.3848 239.661 9.63281 239.661 8.12891C239.661 6.75716 238.686 6.07129 236.735 6.07129H234.534ZM250.578 11H250.004L247.81 3.28906C247.627 2.6556 247.491 2.13607 247.399 1.73047C247.326 2.12695 247.222 2.58268 247.085 3.09766C246.953 3.61263 246.219 6.24674 244.884 11H244.296L241.548 1.00586H242.279L244.029 7.44531C244.098 7.70508 244.161 7.94661 244.221 8.16992C244.28 8.38867 244.332 8.59603 244.378 8.79199C244.428 8.9834 244.471 9.17025 244.508 9.35254C244.549 9.53027 244.585 9.71029 244.617 9.89258C244.727 9.27279 244.959 8.33171 245.314 7.06934L247.023 1.00586H247.796L249.799 7.96484C250.031 8.76693 250.198 9.41406 250.298 9.90625C250.357 9.57812 250.432 9.22949 250.523 8.86035C250.619 8.49121 251.323 5.87305 252.636 1.00586H253.34L250.578 11ZM1.9209 30H1.24414V22.5693H7.1709V30H6.49414V23.2119H1.9209V30ZM15.8115 26.2744C15.8115 27.4867 15.5176 28.4346 14.9297 29.1182C14.3418 29.7972 13.5306 30.1367 12.4961 30.1367C11.8444 30.1367 11.2702 29.9795 10.7734 29.665C10.2767 29.3506 9.89616 28.8994 9.63184 28.3115C9.36751 27.7236 9.23535 27.0446 9.23535 26.2744C9.23535 25.0622 9.5293 24.1188 10.1172 23.4443C10.7051 22.7653 11.5117 22.4258 12.5371 22.4258C13.5579 22.4258 14.3577 22.7699 14.9365 23.458C15.5199 24.1416 15.8115 25.0804 15.8115 26.2744ZM9.94629 26.2744C9.94629 27.2952 10.1696 28.0928 10.6162 28.667C11.0674 29.2367 11.7031 29.5215 12.5234 29.5215C13.3438 29.5215 13.9772 29.2367 14.4238 28.667C14.875 28.0928 15.1006 27.2952 15.1006 26.2744C15.1006 25.249 14.8727 24.4538 14.417 23.8887C13.9658 23.3236 13.3301 23.041 12.5098 23.041C11.6895 23.041 11.056 23.3236 10.6094 23.8887C10.1673 24.4492 9.94629 25.2445 9.94629 26.2744ZM24.9238 30H24.2539V22.7197C24.2539 22.0589 24.2812 21.373 24.3359 20.6621C24.2676 20.7305 24.1969 20.7965 24.124 20.8604C24.0511 20.9242 23.347 21.4779 22.0117 22.5215L21.6221 22.0361L24.3359 20.0059H24.9238V30ZM31.9307 23.9912C32.9971 23.9912 33.8356 24.2487 34.4463 24.7637C35.0615 25.2786 35.3691 25.9873 35.3691 26.8896C35.3691 27.915 35.0501 28.7126 34.4121 29.2822C33.7741 29.8519 32.8945 30.1367 31.7734 30.1367C31.2767 30.1367 30.805 30.0889 30.3584 29.9932C29.9118 29.8929 29.5381 29.7516 29.2373 29.5693V28.8652C29.7295 29.1159 30.167 29.2913 30.5498 29.3916C30.9326 29.4873 31.3405 29.5352 31.7734 29.5352C32.6484 29.5352 33.3503 29.305 33.8789 28.8447C34.4076 28.3799 34.6719 27.7533 34.6719 26.9648C34.6719 26.222 34.4144 25.6387 33.8994 25.2148C33.3844 24.791 32.6849 24.5791 31.8008 24.5791C31.2083 24.5791 30.5885 24.668 29.9414 24.8457L29.5312 24.5791L29.9277 20.0059H34.7402V20.6621H30.5703L30.2627 24.1895C30.9736 24.0573 31.5296 23.9912 31.9307 23.9912ZM41.3096 20.0059H44.0508C45.2858 20.0059 46.1927 20.2155 46.7715 20.6348C47.3503 21.054 47.6396 21.6875 47.6396 22.5352C47.6396 23.1139 47.4619 23.597 47.1064 23.9844C46.7555 24.3672 46.2406 24.6133 45.5615 24.7227V24.7637C46.359 24.8822 46.9447 25.1351 47.3184 25.5225C47.6966 25.9053 47.8857 26.4408 47.8857 27.1289C47.8857 28.0495 47.5804 28.7581 46.9697 29.2549C46.359 29.7516 45.4932 30 44.3721 30H41.3096V20.0059ZM42.0068 24.4561H44.208C45.1468 24.4561 45.8281 24.3011 46.252 23.9912C46.6803 23.6768 46.8945 23.1868 46.8945 22.5215C46.8945 21.8561 46.653 21.373 46.1699 21.0723C45.6914 20.7715 44.9759 20.6211 44.0234 20.6211H42.0068V24.4561ZM42.0068 25.0713V29.3848H44.3584C46.2087 29.3848 47.1338 28.6328 47.1338 27.1289C47.1338 25.7572 46.1585 25.0713 44.208 25.0713H42.0068ZM54.6328 23.1572H52.1582V30H51.4883V23.1572H48.9521V22.5693H54.6328V23.1572ZM63.834 22.5693H64.6748L61.3457 26.165L64.9141 30H64.0049L60.4912 26.2334V30H59.8008V22.5693H60.4912V26.1787L63.834 22.5693ZM70.7383 30L70.5674 28.8242H70.5127C70.139 29.3027 69.7539 29.6423 69.3574 29.8428C68.9655 30.0387 68.5007 30.1367 67.9629 30.1367C67.2337 30.1367 66.6663 29.9499 66.2607 29.5762C65.8551 29.2025 65.6523 28.6852 65.6523 28.0244C65.6523 27.2998 65.9531 26.737 66.5547 26.3359C67.1608 25.9349 68.0358 25.723 69.1797 25.7002L70.5947 25.6592V25.167C70.5947 24.4606 70.4512 23.9274 70.1641 23.5674C69.877 23.2074 69.4144 23.0273 68.7764 23.0273C68.0882 23.0273 67.375 23.2188 66.6367 23.6016L66.3838 23.0137C67.1995 22.6309 68.0062 22.4395 68.8037 22.4395C69.6195 22.4395 70.2279 22.6514 70.6289 23.0752C71.0345 23.499 71.2373 24.1598 71.2373 25.0576V30H70.7383ZM68.0039 29.5215C68.7969 29.5215 69.4212 29.2959 69.877 28.8447C70.3372 28.389 70.5674 27.7578 70.5674 26.9512V26.2197L69.2686 26.2744C68.2249 26.3245 67.4798 26.4886 67.0332 26.7666C66.5911 27.04 66.3701 27.4684 66.3701 28.0518C66.3701 28.5166 66.5114 28.8789 66.7939 29.1387C67.0811 29.3939 67.4844 29.5215 68.0039 29.5215ZM76.7197 22.5693H77.4033V26.1787L80.5957 22.5693H81.4229L78.2031 26.1787L81.6758 30H80.8076L77.4033 26.2334V30H76.7197V26.2334L73.3154 30H72.4473L75.9062 26.2061L72.7002 22.5693H73.5273L76.7197 26.1787V22.5693ZM89.0244 32.5225H88.3545V30H82.667V32.5225H81.9971V29.3574H82.4893C83.109 28.487 83.5876 27.4775 83.9248 26.3291C84.262 25.1807 84.4398 23.9274 84.458 22.5693H88.0332V29.3574H89.0244V32.5225ZM87.3564 29.3574V23.1982H85.0459C84.9365 25.6637 84.3395 27.7168 83.2549 29.3574H87.3564ZM91.2803 25.7002H93.6455C95.391 25.7002 96.2637 26.3861 96.2637 27.7578C96.2637 28.4642 96.0199 29.0156 95.5322 29.4121C95.0446 29.804 94.3451 30 93.4336 30H90.6035V22.5693H91.2803V25.7002ZM91.2803 26.3428V29.3574H93.543C94.1855 29.3574 94.68 29.223 95.0264 28.9541C95.3727 28.6852 95.5459 28.2819 95.5459 27.7441C95.5459 27.252 95.3932 26.8965 95.0879 26.6777C94.7826 26.4544 94.2539 26.3428 93.502 26.3428H91.2803ZM98.2324 30H97.5625V22.5693H98.2324V30ZM101.377 22.5693V27.9424L101.336 29.3438L105.745 22.5693H106.647V30H105.998V24.6611L106.025 23.2256L101.616 30H100.734V22.5693H101.377ZM103.694 21.5166C103.015 21.5166 102.498 21.3662 102.143 21.0654C101.787 20.7601 101.58 20.2702 101.521 19.5957H102.122C102.19 20.097 102.345 20.4525 102.587 20.6621C102.828 20.8672 103.202 20.9697 103.708 20.9697C104.209 20.9697 104.581 20.8626 104.822 20.6484C105.068 20.4342 105.219 20.0833 105.273 19.5957H105.875C105.779 20.8763 105.052 21.5166 103.694 21.5166ZM1.88672 68.1367C1.3444 68.1367 0.906901 68.0684 0.574219 67.9316V67.2275C0.966146 67.3962 1.38086 67.4805 1.81836 67.4805C2.14648 67.4805 2.42676 67.4258 2.65918 67.3164C2.89616 67.2025 3.11491 67.0225 3.31543 66.7764C3.51595 66.5257 3.75977 66.1087 4.04688 65.5254L0.0683594 58.0059H0.895508L3.95117 63.8438C4.11068 64.1582 4.25423 64.484 4.38184 64.8213H4.40918L4.58008 64.4043L7.45117 58.0059H8.23047L5.02441 65.0332C4.81934 65.4844 4.62337 65.9014 4.43652 66.2842C4.24967 66.6624 4.04232 66.9883 3.81445 67.2617C3.58659 67.5352 3.31999 67.7493 3.01465 67.9043C2.70931 68.0592 2.33333 68.1367 1.88672 68.1367ZM13.8428 61.1572H10.1514V68H9.47461V60.5693H13.8428V61.1572ZM21.5127 64.2744C21.5127 65.4867 21.2188 66.4346 20.6309 67.1182C20.043 67.7972 19.2318 68.1367 18.1973 68.1367C17.5456 68.1367 16.9714 67.9795 16.4746 67.665C15.9779 67.3506 15.5973 66.8994 15.333 66.3115C15.0687 65.7236 14.9365 65.0446 14.9365 64.2744C14.9365 63.0622 15.2305 62.1188 15.8184 61.4443C16.4062 60.7653 17.2129 60.4258 18.2383 60.4258C19.2591 60.4258 20.0589 60.7699 20.6377 61.458C21.221 62.1416 21.5127 63.0804 21.5127 64.2744ZM15.6475 64.2744C15.6475 65.2952 15.8708 66.0928 16.3174 66.667C16.7686 67.2367 17.4043 67.5215 18.2246 67.5215C19.0449 67.5215 19.6784 67.2367 20.125 66.667C20.5762 66.0928 20.8018 65.2952 20.8018 64.2744C20.8018 63.249 20.5739 62.4538 20.1182 61.8887C19.667 61.3236 19.0312 61.041 18.2109 61.041C17.3906 61.041 16.7572 61.3236 16.3105 61.8887C15.8685 62.4492 15.6475 63.2445 15.6475 64.2744ZM28.7109 68H28.041V61.1982H25.4092C25.2725 62.9984 25.1038 64.3724 24.9033 65.3203C24.7074 66.2637 24.4521 66.9587 24.1377 67.4053C23.8278 67.8473 23.4245 68.0684 22.9277 68.0684C22.75 68.0684 22.5951 68.0501 22.4629 68.0137V67.3984C22.5495 67.4258 22.6725 67.4395 22.832 67.4395C23.347 67.4395 23.7617 66.8971 24.0762 65.8125C24.3952 64.7233 24.6367 62.9756 24.8008 60.5693H28.7109V68ZM38.0146 68.1367C36.8708 68.1367 36.0368 67.7083 35.5127 66.8516H35.4648L35.4854 67.4258C35.5036 67.763 35.5127 68.1322 35.5127 68.5332V71.3633H34.8359V60.5693H35.4102L35.54 61.6289H35.5811C36.0915 60.8268 36.9072 60.4258 38.0283 60.4258C39.0309 60.4258 39.7943 60.7562 40.3184 61.417C40.847 62.0732 41.1113 63.0303 41.1113 64.2881C41.1113 65.5094 40.8333 66.4574 40.2773 67.1318C39.7259 67.8018 38.9717 68.1367 38.0146 68.1367ZM38.001 67.5352C38.762 67.5352 39.3499 67.2526 39.7646 66.6875C40.1839 66.1224 40.3936 65.3317 40.3936 64.3154C40.3936 62.1325 39.6051 61.041 38.0283 61.041C37.1624 61.041 36.5267 61.2803 36.1211 61.7588C35.7155 62.2327 35.5127 63.0075 35.5127 64.083V64.3018C35.5127 65.4639 35.7064 66.2933 36.0938 66.79C36.4857 67.2868 37.1214 67.5352 38.001 67.5352ZM47.6875 68L47.5166 66.8242H47.4619C47.0882 67.3027 46.7031 67.6423 46.3066 67.8428C45.9147 68.0387 45.4499 68.1367 44.9121 68.1367C44.1829 68.1367 43.6156 67.9499 43.21 67.5762C42.8044 67.2025 42.6016 66.6852 42.6016 66.0244C42.6016 65.2998 42.9023 64.737 43.5039 64.3359C44.11 63.9349 44.985 63.723 46.1289 63.7002L47.5439 63.6592V63.167C47.5439 62.4606 47.4004 61.9274 47.1133 61.5674C46.8262 61.2074 46.3636 61.0273 45.7256 61.0273C45.0374 61.0273 44.3242 61.2188 43.5859 61.6016L43.333 61.0137C44.1488 60.6309 44.9554 60.4395 45.7529 60.4395C46.5687 60.4395 47.1771 60.6514 47.5781 61.0752C47.9837 61.499 48.1865 62.1598 48.1865 63.0576V68H47.6875ZM44.9531 67.5215C45.7461 67.5215 46.3704 67.2959 46.8262 66.8447C47.2865 66.389 47.5166 65.7578 47.5166 64.9512V64.2197L46.2178 64.2744C45.1742 64.3245 44.429 64.4886 43.9824 64.7666C43.5404 65.04 43.3193 65.4684 43.3193 66.0518C43.3193 66.5166 43.4606 66.8789 43.7432 67.1387C44.0303 67.3939 44.4336 67.5215 44.9531 67.5215ZM53.5664 68.1367C52.5046 68.1367 51.6729 67.8018 51.0713 67.1318C50.4697 66.4619 50.1689 65.5277 50.1689 64.3291C50.1689 63.0986 50.4811 62.1416 51.1055 61.458C51.7298 60.7699 52.5843 60.4258 53.6689 60.4258C54.3115 60.4258 54.9268 60.5374 55.5146 60.7607L55.3301 61.3623C54.6875 61.1481 54.1292 61.041 53.6553 61.041C52.7438 61.041 52.0534 61.3236 51.584 61.8887C51.1146 62.4492 50.8799 63.2581 50.8799 64.3154C50.8799 65.318 51.1146 66.1042 51.584 66.6738C52.0534 67.2389 52.7096 67.5215 53.5527 67.5215C54.2272 67.5215 54.8538 67.4007 55.4326 67.1592V67.7881C54.9587 68.0205 54.3366 68.1367 53.5664 68.1367ZM61.291 60.5693H62.1318L58.8027 64.165L62.3711 68H61.4619L57.9482 64.2334V68H57.2578V60.5693H57.9482V64.1787L61.291 60.5693ZM66.8623 68.1367C65.7184 68.1367 64.8844 67.7083 64.3604 66.8516H64.3125L64.333 67.4258C64.3512 67.763 64.3604 68.1322 64.3604 68.5332V71.3633H63.6836V60.5693H64.2578L64.3877 61.6289H64.4287C64.9391 60.8268 65.7549 60.4258 66.876 60.4258C67.8786 60.4258 68.6419 60.7562 69.166 61.417C69.6947 62.0732 69.959 63.0303 69.959 64.2881C69.959 65.5094 69.681 66.4574 69.125 67.1318C68.5736 67.8018 67.8193 68.1367 66.8623 68.1367ZM66.8486 67.5352C67.6097 67.5352 68.1976 67.2526 68.6123 66.6875C69.0316 66.1224 69.2412 65.3317 69.2412 64.3154C69.2412 62.1325 68.4528 61.041 66.876 61.041C66.0101 61.041 65.3743 61.2803 64.9688 61.7588C64.5632 62.2327 64.3604 63.0075 64.3604 64.083V64.3018C64.3604 65.4639 64.554 66.2933 64.9414 66.79C65.3333 67.2868 65.9691 67.5352 66.8486 67.5352ZM72.7002 63.7002H75.0654C76.8109 63.7002 77.6836 64.3861 77.6836 65.7578C77.6836 66.4642 77.4398 67.0156 76.9521 67.4121C76.4645 67.804 75.765 68 74.8535 68H72.0234V60.5693H72.7002V63.7002ZM72.7002 64.3428V67.3574H74.9629C75.6055 67.3574 76.0999 67.223 76.4463 66.9541C76.7926 66.6852 76.9658 66.2819 76.9658 65.7441C76.9658 65.252 76.8132 64.8965 76.5078 64.6777C76.2025 64.4544 75.6738 64.3428 74.9219 64.3428H72.7002ZM79.6523 68H78.9824V60.5693H79.6523V68ZM86.8711 61.1572H84.3965V68H83.7266V61.1572H81.1904V60.5693H86.8711V61.1572ZM89.0449 60.5693V65.9424L89.0039 67.3438L93.4131 60.5693H94.3154V68H93.666V62.6611L93.6934 61.2256L89.2842 68H88.4023V60.5693H89.0449ZM96.7012 68H95.8467L98.0889 64.7939C97.4053 64.6663 96.9108 64.4294 96.6055 64.083C96.3047 63.7367 96.1543 63.2923 96.1543 62.75C96.1543 62.0755 96.3799 61.5446 96.8311 61.1572C97.2868 60.7653 97.8975 60.5693 98.6631 60.5693H101.726V68H101.056V64.876H98.7861L96.7012 68ZM96.8652 62.7227C96.8652 63.2331 97.0293 63.6136 97.3574 63.8643C97.6901 64.1104 98.1891 64.2334 98.8545 64.2334H101.056V61.2119H98.6494C98.0843 61.2119 97.6445 61.3418 97.3301 61.6016C97.0202 61.8568 96.8652 62.2305 96.8652 62.7227ZM108.896 68L113.012 58.6621H107.358V58.0059H113.825V58.5049L109.696 68H108.896ZM115.562 59.9062C115.562 59.3047 115.757 58.8148 116.149 58.4365C116.546 58.0537 117.031 57.8623 117.605 57.8623C118.18 57.8623 118.663 58.0537 119.055 58.4365C119.451 58.8148 119.649 59.3047 119.649 59.9062C119.649 60.5078 119.451 61 119.055 61.3828C118.663 61.7611 118.18 61.9502 117.605 61.9502C117.013 61.9502 116.523 61.7611 116.136 61.3828C115.753 61.0046 115.562 60.5124 115.562 59.9062ZM116.177 59.9062C116.177 60.321 116.316 60.6719 116.594 60.959C116.872 61.2461 117.209 61.3896 117.605 61.3896C117.997 61.3896 118.332 61.2484 118.61 60.9658C118.893 60.6833 119.034 60.3301 119.034 59.9062C119.034 59.487 118.897 59.1361 118.624 58.8535C118.351 58.5664 118.011 58.4229 117.605 58.4229C117.195 58.4229 116.854 58.5687 116.58 58.8604C116.311 59.152 116.177 59.5007 116.177 59.9062ZM1.41504 96.0059H4.15625C5.39128 96.0059 6.29818 96.2155 6.87695 96.6348C7.45573 97.054 7.74512 97.6875 7.74512 98.5352C7.74512 99.1139 7.56738 99.597 7.21191 99.9844C6.861 100.367 6.34603 100.613 5.66699 100.723V100.764C6.46452 100.882 7.05013 101.135 7.42383 101.522C7.80208 101.905 7.99121 102.441 7.99121 103.129C7.99121 104.049 7.68587 104.758 7.0752 105.255C6.46452 105.752 5.59863 106 4.47754 106H1.41504V96.0059ZM2.1123 100.456H4.31348C5.25228 100.456 5.93359 100.301 6.35742 99.9912C6.78581 99.6768 7 99.1868 7 98.5215C7 97.8561 6.75846 97.373 6.27539 97.0723C5.79688 96.7715 5.08138 96.6211 4.12891 96.6211H2.1123V100.456ZM2.1123 101.071V105.385H4.46387C6.31413 105.385 7.23926 104.633 7.23926 103.129C7.23926 101.757 6.264 101.071 4.31348 101.071H2.1123ZM17.6914 98.5693H18.5322L15.2031 102.165L18.7715 106H17.8623L14.3486 102.233V106H13.6582V98.5693H14.3486V102.179L17.6914 98.5693ZM26.2295 102.274C26.2295 103.487 25.9355 104.435 25.3477 105.118C24.7598 105.797 23.9486 106.137 22.9141 106.137C22.2624 106.137 21.6882 105.979 21.1914 105.665C20.6947 105.351 20.3141 104.899 20.0498 104.312C19.7855 103.724 19.6533 103.045 19.6533 102.274C19.6533 101.062 19.9473 100.119 20.5352 99.4443C21.123 98.7653 21.9297 98.4258 22.9551 98.4258C23.9759 98.4258 24.7757 98.7699 25.3545 99.458C25.9378 100.142 26.2295 101.08 26.2295 102.274ZM20.3643 102.274C20.3643 103.295 20.5876 104.093 21.0342 104.667C21.4854 105.237 22.1211 105.521 22.9414 105.521C23.7617 105.521 24.3952 105.237 24.8418 104.667C25.293 104.093 25.5186 103.295 25.5186 102.274C25.5186 101.249 25.2907 100.454 24.835 99.8887C24.3838 99.3236 23.748 99.041 22.9277 99.041C22.1074 99.041 21.474 99.3236 21.0273 99.8887C20.5853 100.449 20.3643 101.244 20.3643 102.274ZM31.7461 105.275L32.1699 104.079L34.3096 98.5693H35.2461V106H34.6035V99.3896C34.5033 99.6768 34.3962 99.9707 34.2822 100.271C34.1729 100.572 33.43 102.482 32.0537 106H31.4521L29.3945 100.777C29.3079 100.568 29.2259 100.347 29.1484 100.114C29.0755 99.8818 28.9935 99.6312 28.9023 99.3623V106H28.2871V98.5693H29.1826L31.3291 104.038C31.4977 104.48 31.6367 104.893 31.7461 105.275ZM38.4111 106H37.7344V98.5693H43.6611V106H42.9844V99.2119H38.4111V106ZM51.2969 106H50.627V99.1982H47.9951C47.8584 100.998 47.6898 102.372 47.4893 103.32C47.2933 104.264 47.0381 104.959 46.7236 105.405C46.4137 105.847 46.0104 106.068 45.5137 106.068C45.3359 106.068 45.181 106.05 45.0488 106.014V105.398C45.1354 105.426 45.2585 105.439 45.418 105.439C45.9329 105.439 46.3477 104.897 46.6621 103.812C46.9811 102.723 47.2227 100.976 47.3867 98.5693H51.2969V106ZM56.7861 106.137C55.7061 106.137 54.863 105.804 54.2568 105.139C53.6553 104.473 53.3545 103.541 53.3545 102.343C53.3545 101.158 53.6462 100.21 54.2295 99.499C54.8128 98.7835 55.599 98.4258 56.5879 98.4258C57.4629 98.4258 58.1533 98.7311 58.6592 99.3418C59.165 99.9525 59.418 100.782 59.418 101.83V102.377H54.0654C54.0745 103.398 54.3115 104.177 54.7764 104.715C55.2458 105.253 55.9157 105.521 56.7861 105.521C57.21 105.521 57.5814 105.492 57.9004 105.433C58.224 105.373 58.6318 105.246 59.124 105.05V105.665C58.7048 105.847 58.3174 105.97 57.9619 106.034C57.6064 106.103 57.2145 106.137 56.7861 106.137ZM56.5879 99.0273C55.8724 99.0273 55.2982 99.2643 54.8652 99.7383C54.4323 100.208 54.1794 100.887 54.1064 101.775H58.7002C58.7002 100.914 58.5133 100.242 58.1396 99.7588C57.766 99.2712 57.2487 99.0273 56.5879 99.0273ZM65.502 98.5693H66.3428L63.0137 102.165L66.582 106H65.6729L62.1592 102.233V106H61.4688V98.5693H62.1592V102.179L65.502 98.5693ZM72.6113 99.1572H70.1367V106H69.4668V99.1572H66.9307V98.5693H72.6113V99.1572ZM77.1436 106.137C76.0635 106.137 75.2204 105.804 74.6143 105.139C74.0127 104.473 73.7119 103.541 73.7119 102.343C73.7119 101.158 74.0036 100.21 74.5869 99.499C75.1702 98.7835 75.9564 98.4258 76.9453 98.4258C77.8203 98.4258 78.5107 98.7311 79.0166 99.3418C79.5225 99.9525 79.7754 100.782 79.7754 101.83V102.377H74.4229C74.432 103.398 74.6689 104.177 75.1338 104.715C75.6032 105.253 76.2731 105.521 77.1436 105.521C77.5674 105.521 77.9388 105.492 78.2578 105.433C78.5814 105.373 78.9893 105.246 79.4814 105.05V105.665C79.0622 105.847 78.6748 105.97 78.3193 106.034C77.9639 106.103 77.5719 106.137 77.1436 106.137ZM76.9453 99.0273C76.2298 99.0273 75.6556 99.2643 75.2227 99.7383C74.7897 100.208 74.5368 100.887 74.4639 101.775H79.0576C79.0576 100.914 78.8708 100.242 78.4971 99.7588C78.1234 99.2712 77.6061 99.0273 76.9453 99.0273ZM88.6416 106.137C87.4977 106.137 86.6637 105.708 86.1396 104.852H86.0918L86.1123 105.426C86.1305 105.763 86.1396 106.132 86.1396 106.533V109.363H85.4629V98.5693H86.0371L86.167 99.6289H86.208C86.7184 98.8268 87.5342 98.4258 88.6553 98.4258C89.6579 98.4258 90.4212 98.7562 90.9453 99.417C91.474 100.073 91.7383 101.03 91.7383 102.288C91.7383 103.509 91.4603 104.457 90.9043 105.132C90.3529 105.802 89.5986 106.137 88.6416 106.137ZM88.6279 105.535C89.389 105.535 89.9769 105.253 90.3916 104.688C90.8109 104.122 91.0205 103.332 91.0205 102.315C91.0205 100.132 90.2321 99.041 88.6553 99.041C87.7894 99.041 87.1536 99.2803 86.748 99.7588C86.3424 100.233 86.1396 101.007 86.1396 102.083V102.302C86.1396 103.464 86.3333 104.293 86.7207 104.79C87.1126 105.287 87.7484 105.535 88.6279 105.535ZM98.3145 106L98.1436 104.824H98.0889C97.7152 105.303 97.3301 105.642 96.9336 105.843C96.5417 106.039 96.0768 106.137 95.5391 106.137C94.8099 106.137 94.2425 105.95 93.8369 105.576C93.4313 105.202 93.2285 104.685 93.2285 104.024C93.2285 103.3 93.5293 102.737 94.1309 102.336C94.737 101.935 95.612 101.723 96.7559 101.7L98.1709 101.659V101.167C98.1709 100.461 98.0273 99.9274 97.7402 99.5674C97.4531 99.2074 96.9906 99.0273 96.3525 99.0273C95.6644 99.0273 94.9512 99.2188 94.2129 99.6016L93.96 99.0137C94.7757 98.6309 95.5824 98.4395 96.3799 98.4395C97.1956 98.4395 97.804 98.6514 98.2051 99.0752C98.6107 99.499 98.8135 100.16 98.8135 101.058V106H98.3145ZM95.5801 105.521C96.373 105.521 96.9974 105.296 97.4531 104.845C97.9134 104.389 98.1436 103.758 98.1436 102.951V102.22L96.8447 102.274C95.8011 102.325 95.056 102.489 94.6094 102.767C94.1673 103.04 93.9463 103.468 93.9463 104.052C93.9463 104.517 94.0876 104.879 94.3701 105.139C94.6572 105.394 95.0605 105.521 95.5801 105.521ZM104.193 106.137C103.132 106.137 102.3 105.802 101.698 105.132C101.097 104.462 100.796 103.528 100.796 102.329C100.796 101.099 101.108 100.142 101.732 99.458C102.357 98.7699 103.211 98.4258 104.296 98.4258C104.938 98.4258 105.554 98.5374 106.142 98.7607L105.957 99.3623C105.314 99.1481 104.756 99.041 104.282 99.041C103.371 99.041 102.68 99.3236 102.211 99.8887C101.742 100.449 101.507 101.258 101.507 102.315C101.507 103.318 101.742 104.104 102.211 104.674C102.68 105.239 103.337 105.521 104.18 105.521C104.854 105.521 105.481 105.401 106.06 105.159V105.788C105.586 106.021 104.964 106.137 104.193 106.137ZM110.852 106.137C109.79 106.137 108.958 105.802 108.356 105.132C107.755 104.462 107.454 103.528 107.454 102.329C107.454 101.099 107.766 100.142 108.391 99.458C109.015 98.7699 109.869 98.4258 110.954 98.4258C111.597 98.4258 112.212 98.5374 112.8 98.7607L112.615 99.3623C111.973 99.1481 111.414 99.041 110.94 99.041C110.029 99.041 109.339 99.3236 108.869 99.8887C108.4 100.449 108.165 101.258 108.165 102.315C108.165 103.318 108.4 104.104 108.869 104.674C109.339 105.239 109.995 105.521 110.838 105.521C111.512 105.521 112.139 105.401 112.718 105.159V105.788C112.244 106.021 111.622 106.137 110.852 106.137ZM117.544 106.137C116.464 106.137 115.621 105.804 115.015 105.139C114.413 104.473 114.112 103.541 114.112 102.343C114.112 101.158 114.404 100.21 114.987 99.499C115.571 98.7835 116.357 98.4258 117.346 98.4258C118.221 98.4258 118.911 98.7311 119.417 99.3418C119.923 99.9525 120.176 100.782 120.176 101.83V102.377H114.823C114.832 103.398 115.069 104.177 115.534 104.715C116.004 105.253 116.674 105.521 117.544 105.521C117.968 105.521 118.339 105.492 118.658 105.433C118.982 105.373 119.39 105.246 119.882 105.05V105.665C119.463 105.847 119.075 105.97 118.72 106.034C118.364 106.103 117.972 106.137 117.544 106.137ZM117.346 99.0273C116.63 99.0273 116.056 99.2643 115.623 99.7383C115.19 100.208 114.937 100.887 114.864 101.775H119.458C119.458 100.914 119.271 100.242 118.897 99.7588C118.524 99.2712 118.007 99.0273 117.346 99.0273ZM122.869 98.5693V103.942L122.828 105.344L127.237 98.5693H128.14V106H127.49V100.661L127.518 99.2256L123.108 106H122.227V98.5693H122.869ZM136.336 100.36C136.336 100.83 136.22 101.199 135.987 101.468C135.755 101.732 135.377 101.917 134.853 102.021V102.069C135.45 102.138 135.88 102.311 136.145 102.589C136.413 102.862 136.548 103.257 136.548 103.771C136.548 104.487 136.311 105.038 135.837 105.426C135.368 105.809 134.679 106 133.772 106H130.635V98.5693H133.786C134.634 98.5693 135.27 98.722 135.693 99.0273C136.122 99.3327 136.336 99.777 136.336 100.36ZM135.83 103.758C135.83 102.846 135.131 102.391 133.731 102.391H131.312V105.357H133.827C135.162 105.357 135.83 104.824 135.83 103.758ZM135.618 100.415C135.618 99.9821 135.463 99.6745 135.153 99.4922C134.843 99.3053 134.379 99.2119 133.759 99.2119H131.312V101.755H133.677C134.369 101.755 134.866 101.648 135.167 101.434C135.468 101.219 135.618 100.88 135.618 100.415ZM143.076 106L142.905 104.824H142.851C142.477 105.303 142.092 105.642 141.695 105.843C141.303 106.039 140.839 106.137 140.301 106.137C139.572 106.137 139.004 105.95 138.599 105.576C138.193 105.202 137.99 104.685 137.99 104.024C137.99 103.3 138.291 102.737 138.893 102.336C139.499 101.935 140.374 101.723 141.518 101.7L142.933 101.659V101.167C142.933 100.461 142.789 99.9274 142.502 99.5674C142.215 99.2074 141.752 99.0273 141.114 99.0273C140.426 99.0273 139.713 99.2188 138.975 99.6016L138.722 99.0137C139.537 98.6309 140.344 98.4395 141.142 98.4395C141.957 98.4395 142.566 98.6514 142.967 99.0752C143.372 99.499 143.575 100.16 143.575 101.058V106H143.076ZM140.342 105.521C141.135 105.521 141.759 105.296 142.215 104.845C142.675 104.389 142.905 103.758 142.905 102.951V102.22L141.606 102.274C140.563 102.325 139.818 102.489 139.371 102.767C138.929 103.04 138.708 103.468 138.708 104.052C138.708 104.517 138.849 104.879 139.132 105.139C139.419 105.394 139.822 105.521 140.342 105.521ZM155.107 102.274C155.107 103.487 154.834 104.435 154.287 105.118C153.745 105.797 153 106.137 152.052 106.137C151.159 106.137 150.438 105.802 149.892 105.132C149.349 104.462 149.071 103.557 149.058 102.418H146.665V106H145.988V98.5693H146.665V101.83H149.071C149.135 100.759 149.431 99.9251 149.96 99.3281C150.493 98.7266 151.204 98.4258 152.093 98.4258C153.022 98.4258 153.756 98.7699 154.294 99.458C154.836 100.142 155.107 101.08 155.107 102.274ZM149.769 102.274C149.769 103.295 149.969 104.093 150.37 104.667C150.776 105.237 151.345 105.521 152.079 105.521C152.813 105.521 153.38 105.234 153.781 104.66C154.187 104.086 154.39 103.291 154.39 102.274C154.39 101.254 154.187 100.461 153.781 99.8955C153.376 99.3258 152.804 99.041 152.065 99.041C151.332 99.041 150.764 99.3236 150.363 99.8887C149.967 100.449 149.769 101.244 149.769 102.274ZM162.217 105.357H165.922V98.5693H166.599V105.357H167.59V108.522H166.92V106H157.158V98.5693H157.835V105.357H161.54V98.5693H162.217V105.357ZM173.688 106L173.517 104.824H173.462C173.088 105.303 172.703 105.642 172.307 105.843C171.915 106.039 171.45 106.137 170.912 106.137C170.183 106.137 169.616 105.95 169.21 105.576C168.804 105.202 168.602 104.685 168.602 104.024C168.602 103.3 168.902 102.737 169.504 102.336C170.11 101.935 170.985 101.723 172.129 101.7L173.544 101.659V101.167C173.544 100.461 173.4 99.9274 173.113 99.5674C172.826 99.2074 172.364 99.0273 171.726 99.0273C171.037 99.0273 170.324 99.2188 169.586 99.6016L169.333 99.0137C170.149 98.6309 170.955 98.4395 171.753 98.4395C172.569 98.4395 173.177 98.6514 173.578 99.0752C173.984 99.499 174.187 100.16 174.187 101.058V106H173.688ZM170.953 105.521C171.746 105.521 172.37 105.296 172.826 104.845C173.286 104.389 173.517 103.758 173.517 102.951V102.22L172.218 102.274C171.174 102.325 170.429 102.489 169.982 102.767C169.54 103.04 169.319 103.468 169.319 104.052C169.319 104.517 169.461 104.879 169.743 105.139C170.03 105.394 170.434 105.521 170.953 105.521ZM176.49 106H175.636L177.878 102.794C177.194 102.666 176.7 102.429 176.395 102.083C176.094 101.737 175.943 101.292 175.943 100.75C175.943 100.076 176.169 99.5446 176.62 99.1572C177.076 98.7653 177.687 98.5693 178.452 98.5693H181.515V106H180.845V102.876H178.575L176.49 106ZM176.654 100.723C176.654 101.233 176.818 101.614 177.146 101.864C177.479 102.11 177.978 102.233 178.644 102.233H180.845V99.2119H178.438C177.873 99.2119 177.434 99.3418 177.119 99.6016C176.809 99.8568 176.654 100.23 176.654 100.723ZM192.787 106H192.117V99.1982H189.485C189.349 100.998 189.18 102.372 188.979 103.32C188.784 104.264 188.528 104.959 188.214 105.405C187.904 105.847 187.501 106.068 187.004 106.068C186.826 106.068 186.671 106.05 186.539 106.014V105.398C186.626 105.426 186.749 105.439 186.908 105.439C187.423 105.439 187.838 104.897 188.152 103.812C188.471 102.723 188.713 100.976 188.877 98.5693H192.787V106ZM195.918 98.5693V103.942L195.877 105.344L200.286 98.5693H201.188V106H200.539V100.661L200.566 99.2256L196.157 106H195.275V98.5693H195.918ZM204.36 98.5693V101.83H209.077V98.5693H209.747V106H209.077V102.418H204.36V106H203.684V98.5693H204.36ZM213.644 101.775C214.988 101.775 215.66 101.313 215.66 100.388C215.66 99.9456 215.505 99.6084 215.195 99.376C214.885 99.1436 214.443 99.0273 213.869 99.0273C213.505 99.0273 213.165 99.0706 212.851 99.1572C212.536 99.2393 212.199 99.36 211.839 99.5195L211.586 98.959C212.379 98.6035 213.149 98.4258 213.896 98.4258C214.708 98.4258 215.323 98.5944 215.742 98.9316C216.161 99.2689 216.371 99.736 216.371 100.333C216.371 101.194 215.929 101.743 215.045 101.98V102.021C215.596 102.158 215.997 102.386 216.248 102.705C216.499 103.02 216.624 103.423 216.624 103.915C216.624 104.603 216.371 105.146 215.865 105.542C215.364 105.938 214.667 106.137 213.773 106.137C213.29 106.137 212.848 106.091 212.447 106C212.051 105.904 211.723 105.779 211.463 105.624V104.947C211.932 105.171 212.338 105.323 212.68 105.405C213.021 105.483 213.386 105.521 213.773 105.521C214.448 105.521 214.972 105.38 215.346 105.098C215.724 104.811 215.913 104.403 215.913 103.874C215.913 103.359 215.733 102.979 215.373 102.732C215.013 102.486 214.473 102.363 213.753 102.363H212.721V101.775H213.644ZM223.084 106L222.913 104.824H222.858C222.485 105.303 222.1 105.642 221.703 105.843C221.311 106.039 220.846 106.137 220.309 106.137C219.579 106.137 219.012 105.95 218.606 105.576C218.201 105.202 217.998 104.685 217.998 104.024C217.998 103.3 218.299 102.737 218.9 102.336C219.507 101.935 220.382 101.723 221.525 101.7L222.94 101.659V101.167C222.94 100.461 222.797 99.9274 222.51 99.5674C222.223 99.2074 221.76 99.0273 221.122 99.0273C220.434 99.0273 219.721 99.2188 218.982 99.6016L218.729 99.0137C219.545 98.6309 220.352 98.4395 221.149 98.4395C221.965 98.4395 222.574 98.6514 222.975 99.0752C223.38 99.499 223.583 100.16 223.583 101.058V106H223.084ZM220.35 105.521C221.143 105.521 221.767 105.296 222.223 104.845C222.683 104.389 222.913 103.758 222.913 102.951V102.22L221.614 102.274C220.571 102.325 219.826 102.489 219.379 102.767C218.937 103.04 218.716 103.468 218.716 104.052C218.716 104.517 218.857 104.879 219.14 105.139C219.427 105.394 219.83 105.521 220.35 105.521ZM236.188 103.45H234.466V106H233.823V103.45H228.683V102.992L233.639 95.9512H234.466V102.862H236.188V103.45ZM233.823 102.862V100.005C233.823 98.6286 233.855 97.4733 233.919 96.5391H233.864C233.773 96.7077 233.493 97.1361 233.023 97.8242L229.496 102.862H233.823ZM243.599 100.976C243.599 102.73 243.33 104.029 242.792 104.872C242.259 105.715 241.45 106.137 240.365 106.137C239.322 106.137 238.529 105.704 237.986 104.838C237.444 103.967 237.173 102.68 237.173 100.976C237.173 99.2347 237.435 97.945 237.959 97.1064C238.488 96.2679 239.29 95.8486 240.365 95.8486C241.418 95.8486 242.22 96.2839 242.771 97.1543C243.323 98.0202 243.599 99.2939 243.599 100.976ZM237.911 100.976C237.911 102.525 238.114 103.671 238.52 104.414C238.925 105.152 239.54 105.521 240.365 105.521C241.227 105.521 241.853 105.139 242.245 104.373C242.642 103.607 242.84 102.475 242.84 100.976C242.84 99.499 242.642 98.3779 242.245 97.6123C241.853 96.8467 241.227 96.4639 240.365 96.4639C239.504 96.4639 238.88 96.8467 238.492 97.6123C238.105 98.3779 237.911 99.499 237.911 100.976ZM245.335 97.9062C245.335 97.3047 245.531 96.8148 245.923 96.4365C246.319 96.0537 246.805 95.8623 247.379 95.8623C247.953 95.8623 248.436 96.0537 248.828 96.4365C249.225 96.8148 249.423 97.3047 249.423 97.9062C249.423 98.5078 249.225 99 248.828 99.3828C248.436 99.7611 247.953 99.9502 247.379 99.9502C246.786 99.9502 246.297 99.7611 245.909 99.3828C245.526 99.0046 245.335 98.5124 245.335 97.9062ZM245.95 97.9062C245.95 98.321 246.089 98.6719 246.367 98.959C246.645 99.2461 246.982 99.3896 247.379 99.3896C247.771 99.3896 248.106 99.2484 248.384 98.9658C248.666 98.6833 248.808 98.3301 248.808 97.9062C248.808 97.487 248.671 97.1361 248.397 96.8535C248.124 96.5664 247.785 96.4229 247.379 96.4229C246.969 96.4229 246.627 96.5687 246.354 96.8604C246.085 97.152 245.95 97.5007 245.95 97.9062ZM8.5791 144H7.88184V134.662H2.1123V144H1.41504V134.006H8.5791V144ZM17.3838 140.274C17.3838 141.487 17.0898 142.435 16.502 143.118C15.9141 143.797 15.1029 144.137 14.0684 144.137C13.4167 144.137 12.8424 143.979 12.3457 143.665C11.849 143.351 11.4684 142.899 11.2041 142.312C10.9398 141.724 10.8076 141.045 10.8076 140.274C10.8076 139.062 11.1016 138.119 11.6895 137.444C12.2773 136.765 13.084 136.426 14.1094 136.426C15.1302 136.426 15.93 136.77 16.5088 137.458C17.0921 138.142 17.3838 139.08 17.3838 140.274ZM11.5186 140.274C11.5186 141.295 11.7419 142.093 12.1885 142.667C12.6396 143.237 13.2754 143.521 14.0957 143.521C14.916 143.521 15.5495 143.237 15.9961 142.667C16.4473 142.093 16.6729 141.295 16.6729 140.274C16.6729 139.249 16.445 138.454 15.9893 137.889C15.5381 137.324 14.9023 137.041 14.082 137.041C13.2617 137.041 12.6283 137.324 12.1816 137.889C11.7396 138.449 11.5186 139.244 11.5186 140.274ZM24.1582 137.157H21.6836V144H21.0137V137.157H18.4775V136.569H24.1582V137.157ZM28.8682 144.137C27.7243 144.137 26.8903 143.708 26.3662 142.852H26.3184L26.3389 143.426C26.3571 143.763 26.3662 144.132 26.3662 144.533V147.363H25.6895V136.569H26.2637L26.3936 137.629H26.4346C26.945 136.827 27.7607 136.426 28.8818 136.426C29.8844 136.426 30.6478 136.756 31.1719 137.417C31.7005 138.073 31.9648 139.03 31.9648 140.288C31.9648 141.509 31.6868 142.457 31.1309 143.132C30.5794 143.802 29.8252 144.137 28.8682 144.137ZM28.8545 143.535C29.6156 143.535 30.2035 143.253 30.6182 142.688C31.0374 142.122 31.2471 141.332 31.2471 140.315C31.2471 138.132 30.4587 137.041 28.8818 137.041C28.016 137.041 27.3802 137.28 26.9746 137.759C26.569 138.233 26.3662 139.007 26.3662 140.083V140.302C26.3662 141.464 26.5599 142.293 26.9473 142.79C27.3392 143.287 27.9749 143.535 28.8545 143.535ZM37.0303 144.137C35.9502 144.137 35.1071 143.804 34.501 143.139C33.8994 142.473 33.5986 141.541 33.5986 140.343C33.5986 139.158 33.8903 138.21 34.4736 137.499C35.057 136.784 35.8431 136.426 36.832 136.426C37.707 136.426 38.3975 136.731 38.9033 137.342C39.4092 137.952 39.6621 138.782 39.6621 139.83V140.377H34.3096C34.3187 141.398 34.5557 142.177 35.0205 142.715C35.4899 143.253 36.1598 143.521 37.0303 143.521C37.4541 143.521 37.8255 143.492 38.1445 143.433C38.4681 143.373 38.876 143.246 39.3682 143.05V143.665C38.9489 143.847 38.5615 143.97 38.2061 144.034C37.8506 144.103 37.4587 144.137 37.0303 144.137ZM36.832 137.027C36.1165 137.027 35.5423 137.264 35.1094 137.738C34.6764 138.208 34.4235 138.887 34.3506 139.775H38.9443C38.9443 138.914 38.7575 138.242 38.3838 137.759C38.0101 137.271 37.4928 137.027 36.832 137.027ZM41.3096 139.536C41.3096 136.31 42.2188 134.471 44.0371 134.02C44.6751 133.86 45.2858 133.726 45.8691 133.616C46.457 133.502 46.9766 133.402 47.4277 133.315L47.5508 133.903L46.7305 134.061C45.377 134.316 44.4837 134.512 44.0508 134.648C43.4355 134.826 42.9525 135.252 42.6016 135.927C42.2552 136.601 42.057 137.524 42.0068 138.695H42.0479C42.5355 138.117 43.0094 137.704 43.4697 137.458C43.93 137.207 44.404 137.082 44.8916 137.082C45.8031 137.082 46.5003 137.376 46.9834 137.964C47.4665 138.552 47.708 139.388 47.708 140.473C47.708 141.626 47.43 142.526 46.874 143.173C46.318 143.815 45.5365 144.137 44.5293 144.137C43.5085 144.137 42.7155 143.738 42.1504 142.94C41.5898 142.143 41.3096 141.008 41.3096 139.536ZM44.584 143.521C45.3633 143.521 45.958 143.262 46.3682 142.742C46.7829 142.223 46.9902 141.475 46.9902 140.5C46.9902 139.575 46.8057 138.878 46.4365 138.408C46.0719 137.934 45.5342 137.697 44.8232 137.697C44.2946 137.697 43.7819 137.864 43.2852 138.196C42.793 138.524 42.3623 138.98 41.9932 139.563C41.9932 140.379 42.0934 141.095 42.2939 141.71C42.499 142.325 42.7952 142.781 43.1826 143.077C43.57 143.373 44.0371 143.521 44.584 143.521ZM54.8926 144H54.2227V137.198H51.5908C51.4541 138.998 51.2855 140.372 51.085 141.32C50.889 142.264 50.6338 142.959 50.3193 143.405C50.0094 143.847 49.6061 144.068 49.1094 144.068C48.9316 144.068 48.7767 144.05 48.6445 144.014V143.398C48.7311 143.426 48.8542 143.439 49.0137 143.439C49.5286 143.439 49.9434 142.897 50.2578 141.812C50.5768 140.723 50.8184 138.976 50.9824 136.569H54.8926V144ZM57.2715 144H56.417L58.6592 140.794C57.9756 140.666 57.4811 140.429 57.1758 140.083C56.875 139.737 56.7246 139.292 56.7246 138.75C56.7246 138.076 56.9502 137.545 57.4014 137.157C57.8571 136.765 58.4678 136.569 59.2334 136.569H62.2959V144H61.626V140.876H59.3564L57.2715 144ZM57.4355 138.723C57.4355 139.233 57.5996 139.614 57.9277 139.864C58.2604 140.11 58.7594 140.233 59.4248 140.233H61.626V137.212H59.2197C58.6546 137.212 58.2148 137.342 57.9004 137.602C57.5905 137.857 57.4355 138.23 57.4355 138.723ZM67.792 144.137C66.7119 144.137 65.8688 143.804 65.2627 143.139C64.6611 142.473 64.3604 141.541 64.3604 140.343C64.3604 139.158 64.652 138.21 65.2354 137.499C65.8187 136.784 66.6048 136.426 67.5938 136.426C68.4688 136.426 69.1592 136.731 69.665 137.342C70.1709 137.952 70.4238 138.782 70.4238 139.83V140.377H65.0713C65.0804 141.398 65.3174 142.177 65.7822 142.715C66.2516 143.253 66.9215 143.521 67.792 143.521C68.2158 143.521 68.5872 143.492 68.9062 143.433C69.2298 143.373 69.6377 143.246 70.1299 143.05V143.665C69.7106 143.847 69.3232 143.97 68.9678 144.034C68.6123 144.103 68.2204 144.137 67.792 144.137ZM67.5938 137.027C66.8783 137.027 66.304 137.264 65.8711 137.738C65.4382 138.208 65.1852 138.887 65.1123 139.775H69.7061C69.7061 138.914 69.5192 138.242 69.1455 137.759C68.7718 137.271 68.2546 137.027 67.5938 137.027ZM75.9336 143.275L76.3574 142.079L78.4971 136.569H79.4336V144H78.791V137.39C78.6908 137.677 78.5837 137.971 78.4697 138.271C78.3604 138.572 77.6175 140.482 76.2412 144H75.6396L73.582 138.777C73.4954 138.568 73.4134 138.347 73.3359 138.114C73.263 137.882 73.181 137.631 73.0898 137.362V144H72.4746V136.569H73.3701L75.5166 142.038C75.6852 142.48 75.8242 142.893 75.9336 143.275ZM86.4336 144L86.2627 142.824H86.208C85.8343 143.303 85.4492 143.642 85.0527 143.843C84.6608 144.039 84.196 144.137 83.6582 144.137C82.929 144.137 82.3617 143.95 81.9561 143.576C81.5505 143.202 81.3477 142.685 81.3477 142.024C81.3477 141.3 81.6484 140.737 82.25 140.336C82.8561 139.935 83.7311 139.723 84.875 139.7L86.29 139.659V139.167C86.29 138.461 86.1465 137.927 85.8594 137.567C85.5723 137.207 85.1097 137.027 84.4717 137.027C83.7835 137.027 83.0703 137.219 82.332 137.602L82.0791 137.014C82.8949 136.631 83.7015 136.439 84.499 136.439C85.3148 136.439 85.9232 136.651 86.3242 137.075C86.7298 137.499 86.9326 138.16 86.9326 139.058V144H86.4336ZM83.6992 143.521C84.4922 143.521 85.1165 143.296 85.5723 142.845C86.0326 142.389 86.2627 141.758 86.2627 140.951V140.22L84.9639 140.274C83.9202 140.325 83.1751 140.489 82.7285 140.767C82.2865 141.04 82.0654 141.468 82.0654 142.052C82.0654 142.517 82.2067 142.879 82.4893 143.139C82.7764 143.394 83.1797 143.521 83.6992 143.521ZM89.2363 144H88.3818L90.624 140.794C89.9404 140.666 89.446 140.429 89.1406 140.083C88.8398 139.737 88.6895 139.292 88.6895 138.75C88.6895 138.076 88.915 137.545 89.3662 137.157C89.8219 136.765 90.4326 136.569 91.1982 136.569H94.2607V144H93.5908V140.876H91.3213L89.2363 144ZM89.4004 138.723C89.4004 139.233 89.5645 139.614 89.8926 139.864C90.2253 140.11 90.7243 140.233 91.3896 140.233H93.5908V137.212H91.1846C90.6195 137.212 90.1797 137.342 89.8652 137.602C89.5553 137.857 89.4004 138.23 89.4004 138.723ZM103.852 143.275L104.275 142.079L106.415 136.569H107.352V144H106.709V137.39C106.609 137.677 106.502 137.971 106.388 138.271C106.278 138.572 105.535 140.482 104.159 144H103.558L101.5 138.777C101.413 138.568 101.331 138.347 101.254 138.114C101.181 137.882 101.099 137.631 101.008 137.362V144H100.393V136.569H101.288L103.435 142.038C103.603 142.48 103.742 142.893 103.852 143.275ZM115.985 140.274C115.985 141.487 115.691 142.435 115.104 143.118C114.516 143.797 113.704 144.137 112.67 144.137C112.018 144.137 111.444 143.979 110.947 143.665C110.451 143.351 110.07 142.899 109.806 142.312C109.541 141.724 109.409 141.045 109.409 140.274C109.409 139.062 109.703 138.119 110.291 137.444C110.879 136.765 111.686 136.426 112.711 136.426C113.732 136.426 114.532 136.77 115.11 137.458C115.694 138.142 115.985 139.08 115.985 140.274ZM110.12 140.274C110.12 141.295 110.343 142.093 110.79 142.667C111.241 143.237 111.877 143.521 112.697 143.521C113.518 143.521 114.151 143.237 114.598 142.667C115.049 142.093 115.274 141.295 115.274 140.274C115.274 139.249 115.047 138.454 114.591 137.889C114.14 137.324 113.504 137.041 112.684 137.041C111.863 137.041 111.23 137.324 110.783 137.889C110.341 138.449 110.12 139.244 110.12 140.274ZM123.102 143.357H126.807V136.569H127.483V143.357H128.475V146.522H127.805V144H118.043V136.569H118.72V143.357H122.425V136.569H123.102V143.357ZM130.737 136.569V139.83H135.454V136.569H136.124V144H135.454V140.418H130.737V144H130.061V136.569H130.737ZM144.765 140.274C144.765 141.487 144.471 142.435 143.883 143.118C143.295 143.797 142.484 144.137 141.449 144.137C140.798 144.137 140.223 143.979 139.727 143.665C139.23 143.351 138.849 142.899 138.585 142.312C138.321 141.724 138.188 141.045 138.188 140.274C138.188 139.062 138.482 138.119 139.07 137.444C139.658 136.765 140.465 136.426 141.49 136.426C142.511 136.426 143.311 136.77 143.89 137.458C144.473 138.142 144.765 139.08 144.765 140.274ZM138.899 140.274C138.899 141.295 139.123 142.093 139.569 142.667C140.021 143.237 140.656 143.521 141.477 143.521C142.297 143.521 142.93 143.237 143.377 142.667C143.828 142.093 144.054 141.295 144.054 140.274C144.054 139.249 143.826 138.454 143.37 137.889C142.919 137.324 142.283 137.041 141.463 137.041C140.643 137.041 140.009 137.324 139.562 137.889C139.12 138.449 138.899 139.244 138.899 140.274ZM149.789 144.137C148.727 144.137 147.896 143.802 147.294 143.132C146.692 142.462 146.392 141.528 146.392 140.329C146.392 139.099 146.704 138.142 147.328 137.458C147.952 136.77 148.807 136.426 149.892 136.426C150.534 136.426 151.149 136.537 151.737 136.761L151.553 137.362C150.91 137.148 150.352 137.041 149.878 137.041C148.966 137.041 148.276 137.324 147.807 137.889C147.337 138.449 147.103 139.258 147.103 140.315C147.103 141.318 147.337 142.104 147.807 142.674C148.276 143.239 148.932 143.521 149.775 143.521C150.45 143.521 151.076 143.401 151.655 143.159V143.788C151.181 144.021 150.559 144.137 149.789 144.137ZM158.197 137.157H155.723V144H155.053V137.157H152.517V136.569H158.197V137.157ZM160.405 139.7H163.023C164.769 139.7 165.642 140.386 165.642 141.758C165.642 142.464 165.398 143.016 164.91 143.412C164.423 143.804 163.723 144 162.812 144H159.729V136.569H160.405V139.7ZM160.405 140.343V143.357H162.921C163.568 143.357 164.062 143.221 164.404 142.947C164.751 142.674 164.924 142.273 164.924 141.744C164.924 141.252 164.771 140.896 164.466 140.678C164.16 140.454 163.632 140.343 162.88 140.343H160.405ZM177.119 144H170.864V143.398L173.523 140.623C174.271 139.848 174.795 139.256 175.096 138.846C175.396 138.436 175.618 138.044 175.759 137.67C175.9 137.296 175.971 136.904 175.971 136.494C175.971 135.897 175.775 135.412 175.383 135.038C174.991 134.664 174.483 134.478 173.858 134.478C173.024 134.478 172.227 134.781 171.466 135.387L171.097 134.915C171.931 134.213 172.856 133.862 173.872 133.862C174.743 133.862 175.426 134.095 175.923 134.56C176.424 135.024 176.675 135.665 176.675 136.48C176.675 137.141 176.506 137.782 176.169 138.401C175.836 139.017 175.226 139.778 174.337 140.685L171.773 143.316V143.344H177.119V144ZM185.302 138.976C185.302 140.73 185.033 142.029 184.495 142.872C183.962 143.715 183.153 144.137 182.068 144.137C181.025 144.137 180.232 143.704 179.689 142.838C179.147 141.967 178.876 140.68 178.876 138.976C178.876 137.235 179.138 135.945 179.662 135.106C180.191 134.268 180.993 133.849 182.068 133.849C183.121 133.849 183.923 134.284 184.475 135.154C185.026 136.02 185.302 137.294 185.302 138.976ZM179.614 138.976C179.614 140.525 179.817 141.671 180.223 142.414C180.628 143.152 181.243 143.521 182.068 143.521C182.93 143.521 183.556 143.139 183.948 142.373C184.345 141.607 184.543 140.475 184.543 138.976C184.543 137.499 184.345 136.378 183.948 135.612C183.556 134.847 182.93 134.464 182.068 134.464C181.207 134.464 180.583 134.847 180.195 135.612C179.808 136.378 179.614 137.499 179.614 138.976ZM193.3 138.976C193.3 140.73 193.031 142.029 192.493 142.872C191.96 143.715 191.151 144.137 190.066 144.137C189.023 144.137 188.23 143.704 187.688 142.838C187.145 141.967 186.874 140.68 186.874 138.976C186.874 137.235 187.136 135.945 187.66 135.106C188.189 134.268 188.991 133.849 190.066 133.849C191.119 133.849 191.921 134.284 192.473 135.154C193.024 136.02 193.3 137.294 193.3 138.976ZM187.612 138.976C187.612 140.525 187.815 141.671 188.221 142.414C188.626 143.152 189.242 143.521 190.066 143.521C190.928 143.521 191.554 143.139 191.946 142.373C192.343 141.607 192.541 140.475 192.541 138.976C192.541 137.499 192.343 136.378 191.946 135.612C191.554 134.847 190.928 134.464 190.066 134.464C189.205 134.464 188.581 134.847 188.193 135.612C187.806 136.378 187.612 137.499 187.612 138.976ZM199.138 134.006H201.879C203.114 134.006 204.021 134.215 204.6 134.635C205.178 135.054 205.468 135.688 205.468 136.535C205.468 137.114 205.29 137.597 204.935 137.984C204.584 138.367 204.069 138.613 203.39 138.723V138.764C204.187 138.882 204.773 139.135 205.146 139.522C205.525 139.905 205.714 140.441 205.714 141.129C205.714 142.049 205.409 142.758 204.798 143.255C204.187 143.752 203.321 144 202.2 144H199.138V134.006ZM199.835 138.456H202.036C202.975 138.456 203.656 138.301 204.08 137.991C204.508 137.677 204.723 137.187 204.723 136.521C204.723 135.856 204.481 135.373 203.998 135.072C203.52 134.771 202.804 134.621 201.852 134.621H199.835V138.456ZM199.835 139.071V143.385H202.187C204.037 143.385 204.962 142.633 204.962 141.129C204.962 139.757 203.987 139.071 202.036 139.071H199.835ZM212.461 137.157H209.986V144H209.316V137.157H206.78V136.569H212.461V137.157Z" fill="#343434"/>
</svg>
